<svg id="svg" version="1.1" xmlns="http://www.w3.org/2000/svg" xmlns:xlink="http://www.w3.org/1999/xlink" width="400" height="104.81283422459893" viewBox="0, 0, 400,104.81283422459893"><g id="svgg"><path id="path0" d="M49.062 38.407 C 48.033 38.854,48.291 39.555,49.557 39.749 C 51.157 39.995,51.305 40.041,51.377 40.315 C 51.464 40.647,52.515 41.000,53.414 41.000 C 53.863 41.000,54.191 41.133,54.579 41.474 C 55.012 41.854,55.334 41.967,56.211 42.049 C 57.077 42.130,57.391 42.239,57.727 42.576 C 57.961 42.809,58.338 43.000,58.565 43.000 C 59.233 43.000,59.693 43.260,60.686 44.199 C 62.422 45.839,62.333 45.286,62.333 54.490 L 62.333 62.492 62.708 62.728 C 62.969 62.891,63.874 62.993,65.667 63.061 C 67.087 63.115,68.441 63.204,68.675 63.259 L 69.100 63.359 69.030 61.769 L 68.961 60.178 69.480 59.741 C 69.868 59.415,70.000 59.165,70.000 58.756 C 70.000 58.281,70.066 58.195,70.500 58.108 C 70.836 58.041,71.000 57.909,71.000 57.704 C 71.000 57.537,71.090 57.310,71.200 57.200 C 71.310 57.090,71.537 57.000,71.704 57.000 C 71.909 57.000,72.041 56.836,72.108 56.500 C 72.205 56.018,72.241 56.000,73.119 56.000 C 73.982 56.000,74.039 55.974,74.223 55.487 C 74.435 54.925,74.287 54.940,76.483 55.265 C 77.197 55.370,77.213 55.363,77.084 54.978 C 77.012 54.761,76.919 51.033,76.878 46.693 C 76.807 39.206,76.787 38.787,76.485 38.485 C 76.066 38.066,50.014 37.992,49.062 38.407 M121.500 42.750 C 121.500 43.522,121.547 43.667,121.800 43.667 C 122.515 43.667,122.815 42.347,122.178 42.006 C 121.599 41.696,121.500 41.805,121.500 42.750 M248.833 48.589 C 248.833 55.955,248.811 55.791,249.761 55.359 L 250.167 55.174 250.167 48.704 C 250.167 41.754,250.177 41.833,249.300 41.833 L 248.833 41.833 248.833 48.589 M254.167 48.589 C 254.167 55.955,254.144 55.791,255.094 55.359 L 255.500 55.174 255.500 48.704 C 255.500 41.754,255.510 41.833,254.633 41.833 L 254.167 41.833 254.167 48.589 M271.369 44.625 L 271.417 46.250 271.875 46.303 C 272.601 46.386,272.563 47.579,271.829 47.726 L 271.326 47.827 271.371 50.788 L 271.417 53.750 271.866 53.802 C 272.259 53.847,272.330 53.947,272.427 54.596 C 272.554 55.440,272.686 55.573,273.257 55.430 C 274.189 55.196,273.993 53.778,272.987 53.476 C 271.942 53.163,271.833 52.889,271.833 50.567 C 271.833 48.343,271.872 48.246,272.849 48.061 C 274.167 47.811,274.211 46.000,272.899 46.000 C 272.157 46.000,271.833 45.545,271.833 44.504 C 271.833 43.458,271.725 43.000,271.476 43.000 C 271.388 43.000,271.342 43.701,271.369 44.625 M117.367 43.533 C 117.175 43.725,117.050 55.500,117.239 55.500 C 117.279 55.500,117.503 55.427,117.737 55.338 L 118.162 55.177 118.206 49.716 L 118.250 44.254 118.718 44.030 C 119.095 43.850,119.147 43.761,118.989 43.570 C 118.750 43.282,117.643 43.257,117.367 43.533 M286.706 43.444 C 286.101 43.688,286.166 44.128,286.915 44.859 C 287.733 45.657,287.663 45.586,288.929 46.901 C 289.422 47.414,289.891 47.833,289.970 47.833 C 290.787 47.833,290.579 50.259,289.728 50.646 C 289.507 50.747,289.255 51.018,289.167 51.248 C 289.080 51.478,288.890 51.667,288.746 51.667 C 288.602 51.667,288.358 51.888,288.202 52.158 C 288.047 52.428,287.757 52.724,287.558 52.815 C 287.359 52.905,287.150 53.122,287.095 53.296 C 287.040 53.471,286.808 53.713,286.581 53.835 C 286.088 54.098,286.058 54.350,286.471 54.724 C 286.881 55.095,286.863 55.102,287.690 54.254 C 288.090 53.844,288.503 53.425,288.609 53.322 C 288.996 52.947,290.737 51.202,291.317 50.608 C 292.023 49.885,292.167 49.658,292.167 49.265 C 292.167 48.787,291.388 47.540,291.014 47.419 C 290.869 47.373,290.622 47.109,290.466 46.834 C 290.310 46.559,290.064 46.333,289.920 46.333 C 289.776 46.333,289.587 46.145,289.499 45.915 C 289.412 45.684,289.159 45.414,288.938 45.313 C 288.717 45.212,288.458 44.957,288.362 44.746 C 288.266 44.535,288.044 44.317,287.870 44.262 C 287.696 44.206,287.454 43.975,287.332 43.747 C 287.104 43.321,287.063 43.301,286.706 43.444 M126.919 46.327 C 126.739 46.894,127.110 47.331,127.798 47.359 C 128.138 47.373,128.512 47.392,128.628 47.402 C 128.744 47.412,128.948 47.629,129.081 47.885 C 129.214 48.141,129.475 48.544,129.661 48.781 C 130.228 49.502,130.111 52.566,129.499 53.000 C 129.435 53.046,129.269 53.301,129.132 53.566 C 128.944 53.929,128.741 54.063,128.316 54.106 C 127.045 54.233,126.667 54.539,126.930 55.225 C 127.202 55.934,129.909 54.306,130.465 53.100 C 131.369 51.142,131.398 50.741,130.751 49.129 C 130.336 48.095,129.492 47.000,129.109 47.000 C 129.021 47.000,128.716 46.824,128.432 46.610 C 127.671 46.033,127.049 45.917,126.919 46.327 M134.611 46.111 C 134.430 46.292,134.484 46.918,134.700 47.133 C 135.026 47.460,136.500 47.354,136.500 47.005 C 136.500 46.599,134.887 45.836,134.611 46.111 M139.367 46.200 C 138.957 46.610,139.433 47.333,140.112 47.333 C 140.296 47.333,140.759 47.639,141.140 48.013 L 141.833 48.692 141.832 50.804 L 141.831 52.917 141.332 53.201 C 141.058 53.357,140.833 53.600,140.833 53.740 C 140.833 53.910,140.607 54.032,140.157 54.104 C 139.234 54.252,138.684 54.708,138.940 55.115 C 139.222 55.563,139.842 55.442,140.915 54.729 C 144.031 52.660,143.616 47.822,140.188 46.257 C 139.517 45.950,139.610 45.957,139.367 46.200 M156.944 46.111 C 156.739 46.316,156.822 53.523,157.040 54.461 C 157.227 55.266,157.285 55.343,157.665 55.299 L 158.083 55.250 158.128 50.833 C 158.168 46.829,158.146 46.397,157.888 46.208 C 157.578 45.982,157.121 45.935,156.944 46.111 M162.227 46.250 C 162.058 46.690,162.314 47.292,162.712 47.392 C 163.797 47.665,164.303 46.751,163.342 46.254 C 162.719 45.932,162.349 45.931,162.227 46.250 M166.867 46.200 C 166.433 46.634,166.943 47.333,167.694 47.333 C 167.967 47.333,168.382 47.600,168.889 48.100 L 169.667 48.866 169.667 50.501 C 169.667 52.125,169.663 52.140,169.083 52.833 C 168.762 53.217,168.500 53.631,168.500 53.753 C 168.500 53.874,168.256 54.023,167.958 54.083 C 166.995 54.276,166.836 54.350,166.655 54.689 C 165.960 55.987,167.996 55.458,169.506 53.949 C 170.346 53.108,170.977 50.235,170.510 49.373 C 170.424 49.214,170.226 48.728,170.071 48.293 C 169.661 47.143,167.400 45.667,166.867 46.200 M177.223 46.261 C 177.161 46.423,177.321 46.727,177.645 47.061 C 178.026 47.454,178.167 47.755,178.167 48.179 C 178.167 48.690,178.503 49.424,178.849 49.667 C 178.915 49.712,179.078 50.171,179.212 50.685 C 179.488 51.740,180.177 52.869,180.440 52.697 C 180.848 52.431,180.843 51.279,180.432 50.838 C 180.216 50.606,179.870 49.933,179.663 49.342 C 179.457 48.751,179.149 48.038,178.978 47.758 C 178.807 47.479,178.668 47.119,178.667 46.958 C 178.666 46.260,177.449 45.673,177.223 46.261 M184.605 46.375 C 184.550 46.581,184.504 46.942,184.502 47.177 C 184.501 47.432,184.298 47.797,184.000 48.083 C 183.636 48.432,183.500 48.717,183.500 49.130 C 183.500 49.443,183.360 49.898,183.189 50.141 C 183.018 50.384,182.778 50.883,182.656 51.250 C 182.533 51.617,182.231 52.142,181.983 52.417 C 181.640 52.798,181.506 53.164,181.417 53.958 C 181.325 54.784,181.200 55.107,180.817 55.518 C 180.479 55.879,180.333 56.207,180.333 56.602 C 180.333 56.986,180.185 57.335,179.875 57.682 C 179.408 58.204,179.126 59.165,179.340 59.510 C 179.571 59.884,180.191 59.321,180.605 58.361 C 180.830 57.842,181.198 57.069,181.423 56.644 C 181.649 56.219,181.833 55.761,181.833 55.626 C 181.833 55.491,182.047 54.976,182.308 54.482 C 182.570 53.988,182.838 53.361,182.904 53.089 C 182.970 52.818,183.254 52.105,183.534 51.506 C 183.815 50.907,184.254 49.967,184.512 49.417 C 184.769 48.867,185.032 48.192,185.097 47.917 C 185.162 47.642,185.357 47.214,185.530 46.966 L 185.845 46.515 185.348 46.257 C 184.716 45.931,184.725 45.929,184.605 46.375 M192.239 46.403 C 192.082 47.026,192.380 47.280,193.422 47.410 C 194.062 47.490,194.333 47.597,194.333 47.770 C 194.333 47.905,194.558 48.143,194.832 48.299 L 195.331 48.583 195.332 50.764 C 195.333 52.915,195.328 52.947,194.919 53.165 C 194.692 53.287,194.463 53.520,194.412 53.682 C 194.344 53.896,194.069 54.009,193.414 54.091 C 192.419 54.215,192.113 54.451,192.196 55.032 C 192.261 55.494,193.197 55.508,193.698 55.055 C 193.861 54.908,194.308 54.629,194.693 54.435 C 197.085 53.231,197.132 48.340,194.764 47.131 C 194.395 46.943,193.904 46.653,193.672 46.486 C 192.905 45.934,192.364 45.903,192.239 46.403 M199.667 49.105 C 199.667 52.314,199.786 52.833,200.526 52.833 C 200.603 52.833,200.667 53.013,200.667 53.232 C 200.667 53.839,202.178 54.146,202.394 53.583 C 202.463 53.402,202.375 53.333,202.076 53.333 C 201.197 53.333,201.001 52.603,201.001 49.318 L 201.000 46.387 200.575 46.193 C 199.656 45.774,199.667 45.740,199.667 49.105 M206.000 50.770 L 206.000 55.522 206.375 55.410 C 207.066 55.203,207.085 55.069,207.036 50.639 L 206.989 46.362 206.495 46.190 L 206.000 46.017 206.000 50.770 M222.098 46.125 C 221.821 46.401,222.035 47.543,222.500 48.277 C 222.875 48.868,223.000 49.263,223.000 49.858 C 223.000 50.644,223.090 50.958,223.680 52.250 C 223.848 52.617,224.013 53.104,224.047 53.333 C 224.106 53.726,224.125 53.714,224.388 53.130 C 224.770 52.281,224.738 51.697,224.253 50.636 C 224.025 50.139,223.721 49.098,223.578 48.324 C 223.434 47.550,223.280 46.792,223.235 46.639 C 223.150 46.351,222.269 45.953,222.098 46.125 M228.502 46.788 C 228.506 47.917,228.642 48.291,229.092 48.404 C 229.389 48.478,229.512 48.656,229.593 49.126 C 229.938 51.120,231.050 52.965,231.673 52.579 C 231.900 52.439,231.872 51.992,231.640 52.042 C 231.533 52.065,231.336 51.783,231.202 51.417 C 231.067 51.050,230.751 50.188,230.499 49.500 C 230.246 48.813,229.990 47.904,229.930 47.481 C 229.714 45.975,228.498 45.386,228.502 46.788 M241.423 46.313 C 241.230 46.921,241.583 47.279,242.494 47.400 C 242.956 47.461,243.347 47.528,243.365 47.547 C 243.382 47.567,243.444 49.083,243.504 50.917 C 243.634 54.945,243.948 56.116,244.666 55.250 C 245.011 54.835,244.899 48.751,244.534 48.004 C 243.991 46.895,241.643 45.619,241.423 46.313 M262.757 46.310 C 262.546 46.976,263.273 47.496,264.419 47.499 C 264.753 47.500,265.333 48.510,265.333 49.090 C 265.333 49.229,265.446 49.387,265.583 49.440 C 265.751 49.504,265.833 49.768,265.833 50.240 C 265.833 51.022,265.921 51.187,266.266 51.054 C 267.203 50.695,266.039 47.517,264.746 46.904 C 264.427 46.752,264.167 46.570,264.167 46.497 C 264.167 46.375,263.277 46.000,262.986 46.000 C 262.915 46.000,262.812 46.139,262.757 46.310 M151.476 49.380 C 151.447 53.412,151.443 53.348,151.735 53.640 C 152.012 53.917,152.957 53.943,153.218 53.682 C 153.337 53.563,153.251 53.400,152.942 53.157 C 152.095 52.490,152.000 52.084,152.000 49.109 C 152.000 46.827,151.958 46.353,151.750 46.273 C 151.534 46.190,151.497 46.608,151.476 49.380 M211.411 46.343 C 211.036 46.950,212.045 47.780,212.599 47.320 C 212.934 47.043,212.888 46.667,212.520 46.667 C 212.348 46.667,212.114 46.554,212.000 46.417 C 211.756 46.123,211.562 46.098,211.411 46.343 M214.604 46.688 C 214.360 47.910,214.500 48.190,215.178 47.827 C 215.593 47.605,215.638 46.422,215.236 46.268 C 214.790 46.097,214.712 46.149,214.604 46.688 M234.833 46.402 C 234.833 46.532,234.616 47.076,234.350 47.611 C 234.058 48.199,233.828 48.979,233.770 49.583 C 233.716 50.133,233.447 51.135,233.170 51.809 C 232.893 52.483,232.667 53.244,232.667 53.499 C 232.667 53.850,232.569 53.988,232.268 54.064 C 231.608 54.230,231.501 55.500,232.147 55.500 C 232.568 55.500,233.167 55.020,233.167 54.683 C 233.167 54.519,233.323 53.942,233.515 53.401 C 233.707 52.860,234.010 51.854,234.190 51.167 C 234.369 50.479,234.651 49.617,234.816 49.250 C 235.192 48.412,235.576 46.591,235.426 46.349 C 235.264 46.086,234.833 46.125,234.833 46.402 M123.532 48.645 C 122.390 49.958,122.267 51.420,123.208 52.495 C 123.506 52.836,123.884 53.281,124.048 53.484 C 124.277 53.766,124.489 53.841,124.952 53.801 C 125.575 53.749,125.951 53.333,125.376 53.333 C 123.633 53.333,123.427 49.102,125.134 48.343 C 125.807 48.044,125.739 47.766,124.978 47.700 C 124.453 47.655,124.315 47.745,123.532 48.645 M135.700 47.867 C 135.590 47.977,135.500 48.191,135.500 48.342 C 135.500 48.493,135.275 48.853,135.000 49.140 C 134.549 49.612,134.500 49.770,134.500 50.750 C 134.500 51.730,134.549 51.888,135.000 52.360 C 135.275 52.647,135.500 53.051,135.500 53.257 C 135.500 53.701,135.784 53.834,136.722 53.831 C 137.697 53.827,137.991 53.606,137.364 53.346 C 135.385 52.526,135.343 49.110,137.301 48.181 C 137.512 48.081,137.639 47.924,137.583 47.833 C 137.438 47.599,135.941 47.626,135.700 47.867 M163.344 47.980 C 163.246 48.162,163.167 48.429,163.167 48.572 C 163.167 48.721,163.025 48.833,162.839 48.833 C 162.346 48.833,162.167 49.344,162.167 50.750 C 162.167 52.128,162.346 52.667,162.805 52.667 C 162.991 52.667,163.156 52.863,163.257 53.208 C 163.401 53.696,163.487 53.755,164.123 53.801 C 165.237 53.882,165.499 53.631,164.757 53.193 C 163.144 52.241,163.096 49.260,164.680 48.359 C 165.340 47.984,165.207 47.760,164.289 47.700 C 163.663 47.659,163.488 47.710,163.344 47.980 M189.404 47.970 C 189.225 48.137,188.793 48.843,188.445 49.538 L 187.811 50.803 188.498 52.110 C 189.278 53.593,189.522 53.834,190.240 53.831 C 190.926 53.827,191.335 53.576,190.887 53.434 C 189.086 52.862,188.698 49.854,190.257 48.551 C 190.657 48.216,190.946 47.881,190.899 47.805 C 190.742 47.551,189.734 47.663,189.404 47.970 M212.066 47.979 C 211.388 48.398,211.333 48.728,211.333 52.423 L 211.333 55.471 211.792 55.349 L 212.250 55.227 212.342 52.543 C 212.449 49.435,212.760 48.449,213.697 48.243 C 214.407 48.087,214.176 47.757,213.320 47.705 C 212.821 47.674,212.417 47.762,212.066 47.979 M238.715 47.866 C 238.379 48.285,238.292 48.833,238.561 48.833 C 238.916 48.833,239.994 48.116,239.938 47.917 C 239.866 47.661,238.911 47.622,238.715 47.866 M259.866 48.025 C 258.800 48.708,259.494 49.913,260.769 49.593 C 261.278 49.466,261.213 49.129,260.654 48.997 C 260.079 48.861,260.154 48.448,260.792 48.242 C 261.213 48.105,261.289 48.022,261.133 47.867 C 260.846 47.579,260.493 47.623,259.866 48.025 M227.098 49.196 C 226.972 49.501,226.782 50.174,226.676 50.692 C 226.565 51.236,226.309 51.835,226.070 52.109 C 225.200 53.110,224.894 55.877,225.731 55.183 C 226.099 54.877,226.518 53.885,226.753 52.762 C 226.871 52.201,227.200 51.282,227.486 50.721 C 227.903 49.899,227.974 49.619,227.846 49.283 C 227.594 48.620,227.347 48.592,227.098 49.196 M259.375 50.951 C 258.829 51.056,258.721 51.708,259.150 52.310 C 259.343 52.580,259.500 52.871,259.500 52.955 C 259.500 53.316,260.294 53.833,260.844 53.831 C 261.699 53.827,261.962 53.594,261.383 53.354 C 260.108 52.826,259.718 51.533,260.768 51.318 L 261.250 51.220 260.781 51.027 C 260.308 50.832,260.062 50.819,259.375 50.951 M240.700 51.367 C 240.402 51.664,240.457 51.964,240.832 52.083 C 241.282 52.226,241.500 52.060,241.500 51.573 C 241.500 51.127,241.055 51.012,240.700 51.367 M238.643 51.967 C 237.872 52.058,237.898 53.648,238.673 53.839 C 239.546 54.054,240.341 53.566,239.636 53.248 C 239.111 53.011,239.094 52.753,239.588 52.528 C 240.310 52.199,239.706 51.841,238.643 51.967 M265.106 53.328 C 264.937 53.711,264.689 54.006,264.530 54.014 C 263.275 54.075,262.793 54.357,262.867 54.986 C 262.989 56.040,265.917 54.519,265.917 53.400 C 265.917 52.490,265.492 52.452,265.106 53.328 M154.133 54.191 C 153.374 54.469,153.306 55.622,154.061 55.410 C 155.119 55.114,155.343 54.960,155.232 54.603 C 155.047 54.012,154.838 53.933,154.133 54.191 M162.537 54.259 C 162.181 54.509,162.167 54.622,162.167 57.103 L 162.167 59.687 162.792 59.635 L 163.417 59.583 163.528 57.583 C 163.590 56.483,163.694 55.327,163.759 55.015 C 163.943 54.142,163.285 53.736,162.537 54.259 M202.978 54.252 C 201.897 54.839,202.344 55.711,203.475 55.221 C 204.163 54.923,204.259 54.767,204.066 54.264 C 203.941 53.940,203.559 53.936,202.978 54.252 M240.528 54.266 C 240.031 54.614,240.073 55.443,240.583 55.368 C 241.364 55.252,241.833 54.957,241.833 54.581 C 241.833 53.982,241.163 53.821,240.528 54.266 M134.792 54.347 C 134.534 54.497,134.500 54.815,134.500 57.092 L 134.500 59.667 134.903 59.667 C 135.799 59.667,135.833 59.594,135.833 57.710 C 135.833 56.745,135.919 55.668,136.025 55.316 C 136.317 54.342,135.671 53.835,134.792 54.347 " stroke="none" fill="#365dab" fill-rule="evenodd"></path><path id="path1" d="M0.000 52.333 L 0.000 104.667 200.000 104.667 L 400.000 104.667 400.000 52.333 L 400.000 0.000 200.000 0.000 L 0.000 0.000 0.000 52.333 M74.984 29.912 C 77.202 31.076,77.170 30.875,77.284 44.364 C 77.339 50.751,77.431 56.055,77.490 56.150 C 77.549 56.246,78.082 56.427,78.674 56.552 C 85.258 57.949,85.386 67.860,78.844 69.725 C 75.323 70.728,71.618 68.978,70.511 65.790 C 70.344 65.310,70.076 64.617,69.915 64.250 L 69.622 63.583 66.672 63.529 L 63.722 63.474 63.444 63.898 C 63.203 64.266,63.167 64.899,63.167 68.747 L 63.167 73.173 62.667 74.110 C 62.392 74.625,62.167 75.218,62.167 75.427 C 62.167 76.696,59.220 78.126,57.703 77.593 C 57.270 77.441,56.467 77.208,55.917 77.074 C 55.367 76.941,54.647 76.684,54.318 76.503 C 53.989 76.323,53.277 76.071,52.735 75.943 C 52.193 75.815,51.439 75.547,51.059 75.348 C 50.680 75.148,50.080 74.940,49.726 74.885 C 49.373 74.830,48.733 74.610,48.304 74.396 C 47.876 74.182,47.172 73.928,46.740 73.831 C 46.308 73.734,45.564 73.470,45.086 73.244 C 44.609 73.018,44.075 72.832,43.901 72.829 C 43.726 72.827,43.133 72.634,42.583 72.399 C 42.033 72.165,41.092 71.840,40.490 71.678 C 39.889 71.516,39.214 71.263,38.990 71.116 C 38.765 70.969,38.132 70.743,37.583 70.613 C 37.033 70.483,36.273 70.214,35.893 70.014 C 35.513 69.815,34.913 69.607,34.559 69.552 C 34.206 69.497,33.579 69.285,33.167 69.081 C 32.754 68.876,31.998 68.589,31.486 68.441 C 30.483 68.153,29.007 66.829,28.753 65.991 C 28.685 65.767,28.431 65.372,28.190 65.114 L 27.750 64.645 27.701 52.531 C 27.622 33.221,27.718 32.067,29.545 30.494 L 30.409 29.750 51.663 29.657 C 74.199 29.559,74.314 29.560,74.984 29.912 M122.796 41.759 C 123.081 41.959,123.167 42.184,123.167 42.734 C 123.167 43.828,122.895 43.979,120.827 44.035 L 119.083 44.083 119.000 49.619 C 118.902 56.134,119.030 55.722,117.100 55.722 C 115.199 55.722,115.333 56.168,115.333 49.846 C 115.333 43.462,115.527 44.000,113.226 44.000 C 111.651 44.000,111.499 43.971,111.259 43.630 C 110.895 43.109,110.931 42.236,111.333 41.833 C 111.790 41.377,122.154 41.310,122.796 41.759 M250.296 41.759 L 250.667 42.019 250.661 48.551 C 250.656 55.458,250.652 55.490,249.873 55.738 C 249.271 55.928,247.660 55.660,247.311 55.311 C 246.846 54.846,246.827 42.372,247.292 41.960 C 247.857 41.458,249.691 41.336,250.296 41.759 M255.630 41.759 L 256.000 42.019 255.995 48.551 C 255.989 55.458,255.986 55.490,255.206 55.738 C 254.605 55.928,252.994 55.660,252.645 55.311 C 252.179 54.846,252.161 42.372,252.625 41.960 C 253.191 41.458,255.025 41.336,255.630 41.759 M272.285 43.036 C 272.578 43.309,272.662 43.597,272.701 44.467 C 272.748 45.514,272.769 45.563,273.250 45.717 C 274.862 46.233,274.779 48.016,273.125 48.400 L 272.667 48.506 272.667 50.726 C 272.667 53.066,272.771 53.333,273.686 53.333 C 274.367 53.333,274.585 54.888,273.981 55.433 C 273.331 56.018,271.156 55.842,270.354 55.139 C 269.306 54.222,269.286 54.154,269.181 51.167 L 269.083 48.417 268.500 48.363 C 266.815 48.206,266.668 46.185,268.306 45.694 C 269.059 45.469,269.333 44.948,269.333 43.746 C 269.333 42.515,271.234 42.058,272.285 43.036 M287.827 43.031 C 288.014 43.232,288.167 43.457,288.167 43.531 C 288.167 43.606,288.275 43.667,288.407 43.667 C 288.540 43.667,288.777 43.885,288.935 44.152 C 289.093 44.420,289.390 44.715,289.596 44.809 C 289.802 44.903,290.019 45.130,290.077 45.315 C 290.136 45.499,290.334 45.697,290.519 45.756 C 290.703 45.814,290.930 46.031,291.024 46.237 C 291.118 46.443,291.414 46.741,291.681 46.899 C 291.948 47.056,292.167 47.275,292.168 47.384 C 292.169 47.494,292.394 47.761,292.668 47.977 C 293.097 48.316,293.167 48.482,293.167 49.167 C 293.167 49.851,293.097 50.017,292.668 50.356 C 292.394 50.573,292.169 50.840,292.168 50.949 C 292.167 51.058,291.942 51.281,291.666 51.443 C 291.391 51.606,291.122 51.877,291.069 52.046 C 291.015 52.215,290.792 52.435,290.572 52.535 C 290.353 52.635,290.128 52.860,290.072 53.035 C 290.017 53.210,289.802 53.430,289.596 53.524 C 289.390 53.618,289.093 53.914,288.935 54.181 C 288.777 54.448,288.540 54.667,288.407 54.667 C 288.275 54.667,288.167 54.728,288.167 54.802 C 288.167 55.491,286.242 56.009,285.700 55.467 C 285.158 54.924,285.676 53.000,286.365 53.000 C 286.439 53.000,286.500 52.892,286.500 52.759 C 286.500 52.627,286.725 52.386,287.000 52.223 C 287.275 52.061,287.544 51.790,287.598 51.620 C 287.652 51.451,287.875 51.231,288.095 51.131 C 288.314 51.031,288.539 50.806,288.595 50.631 C 288.650 50.456,288.878 50.230,289.102 50.128 C 289.550 49.924,289.755 49.375,289.605 48.779 C 289.552 48.565,289.325 48.307,289.102 48.205 C 288.878 48.104,288.650 47.877,288.595 47.702 C 288.539 47.527,288.314 47.302,288.095 47.202 C 287.875 47.102,287.652 46.882,287.598 46.713 C 287.544 46.544,287.275 46.272,287.000 46.110 C 286.725 45.947,286.500 45.706,286.500 45.574 C 286.500 45.442,286.439 45.333,286.365 45.333 C 285.676 45.333,285.158 43.409,285.700 42.867 C 286.056 42.511,287.442 42.618,287.827 43.031 M128.825 46.239 C 129.151 46.462,129.604 46.729,129.833 46.834 C 130.638 47.200,131.694 49.035,131.791 50.232 C 131.877 51.303,131.590 53.000,131.324 53.000 C 131.245 53.000,130.988 53.329,130.752 53.732 C 130.505 54.153,130.115 54.550,129.833 54.667 C 129.563 54.779,129.144 55.041,128.901 55.249 C 127.976 56.044,124.772 55.979,123.720 55.143 C 123.391 54.881,123.075 54.667,123.019 54.666 C 122.308 54.665,120.986 52.160,120.978 50.802 C 120.970 49.278,122.470 46.667,123.354 46.667 C 123.451 46.667,123.654 46.513,123.807 46.325 C 124.422 45.566,127.758 45.509,128.825 46.239 M135.917 45.978 C 136.340 46.240,136.480 46.256,136.833 46.080 C 138.076 45.461,140.518 45.605,141.370 46.348 C 142.393 47.240,142.895 47.789,143.339 48.500 C 143.719 49.109,143.443 53.333,143.023 53.333 C 142.962 53.333,142.727 53.633,142.500 54.000 C 142.273 54.367,142.010 54.667,141.914 54.667 C 141.819 54.667,141.506 54.881,141.219 55.143 C 140.608 55.702,139.503 55.907,138.014 55.738 C 136.438 55.560,136.333 55.683,136.333 57.701 C 136.333 59.834,136.219 60.000,134.747 60.000 C 133.952 60.000,133.610 59.920,133.272 59.655 L 132.833 59.309 132.833 52.893 C 132.833 47.934,132.881 46.428,133.045 46.265 C 133.649 45.661,135.160 45.510,135.917 45.978 M152.311 46.124 C 152.749 46.451,152.750 46.457,152.839 49.351 C 152.945 52.826,153.048 53.167,153.992 53.167 C 155.102 53.167,155.333 52.457,155.333 49.056 C 155.333 46.423,155.345 46.334,155.708 46.100 C 156.538 45.565,157.873 45.563,158.405 46.095 C 158.807 46.497,158.797 55.184,158.395 55.518 C 158.052 55.803,156.459 55.790,155.914 55.499 C 155.583 55.321,155.464 55.323,155.244 55.505 C 154.897 55.793,152.052 55.796,151.516 55.509 C 150.479 54.953,149.693 53.942,149.511 52.928 C 149.254 51.499,149.277 46.634,149.542 46.303 C 150.109 45.591,151.477 45.503,152.311 46.124 M163.676 45.982 C 164.164 46.243,164.313 46.261,164.555 46.084 C 165.299 45.540,168.719 45.674,168.942 46.256 C 168.990 46.382,169.281 46.633,169.588 46.814 C 169.895 46.995,170.274 47.392,170.430 47.697 C 170.586 48.001,170.765 48.288,170.829 48.333 C 171.381 48.730,171.516 51.585,171.027 52.506 C 170.251 53.965,169.930 54.500,169.830 54.500 C 169.770 54.500,169.382 54.764,168.967 55.087 C 168.089 55.772,166.737 55.989,165.167 55.700 C 164.006 55.485,164.006 55.486,164.003 57.654 C 163.999 59.859,163.900 60.000,162.345 60.000 C 161.615 60.000,161.115 59.912,160.870 59.741 L 160.500 59.481 160.500 52.928 C 160.500 45.719,160.446 46.090,161.543 45.829 C 162.462 45.611,163.065 45.654,163.676 45.982 M178.367 45.845 C 178.851 46.071,179.580 47.252,179.899 48.326 C 180.170 49.238,180.949 50.667,181.176 50.667 C 181.309 50.667,181.463 50.211,181.765 48.917 C 181.829 48.642,182.007 48.229,182.160 48.000 C 182.313 47.771,182.539 47.264,182.663 46.873 C 182.941 45.995,183.054 45.904,184.033 45.762 C 186.030 45.473,186.829 46.396,185.828 47.833 C 185.668 48.063,185.442 48.587,185.324 49.000 C 185.207 49.413,184.935 49.990,184.719 50.284 C 184.504 50.578,184.282 51.065,184.226 51.367 C 184.170 51.669,183.908 52.301,183.645 52.770 C 183.382 53.240,183.167 53.750,183.167 53.903 C 183.167 54.156,182.868 54.858,182.381 55.750 C 182.281 55.933,182.100 56.421,181.979 56.833 C 181.858 57.246,181.625 57.729,181.461 57.908 C 181.298 58.086,181.093 58.489,181.007 58.802 C 180.728 59.813,180.428 60.001,179.099 59.995 C 177.284 59.987,176.873 59.391,177.770 58.070 C 178.010 57.716,178.317 57.049,178.452 56.588 C 178.587 56.127,178.838 55.598,179.010 55.412 C 179.315 55.082,179.315 55.063,179.010 54.598 C 178.838 54.336,178.602 53.776,178.486 53.353 C 178.369 52.930,178.105 52.321,177.899 52.000 C 177.693 51.679,177.444 51.108,177.345 50.730 C 177.246 50.352,177.013 49.850,176.827 49.614 C 176.641 49.377,176.388 48.848,176.265 48.437 C 176.141 48.027,175.881 47.468,175.687 47.195 C 175.492 46.922,175.333 46.626,175.333 46.536 C 175.333 45.913,177.469 45.426,178.367 45.845 M193.304 45.843 C 193.755 45.939,194.264 46.146,194.437 46.302 C 194.609 46.458,194.960 46.679,195.216 46.793 C 195.472 46.907,195.810 47.224,195.966 47.499 C 196.122 47.773,196.304 47.998,196.371 47.999 C 196.994 48.004,197.367 51.858,196.838 52.833 C 195.399 55.489,191.119 56.842,189.247 55.233 C 188.991 55.013,188.715 54.833,188.634 54.833 C 187.913 54.833,186.308 51.930,186.340 50.685 C 186.374 49.418,187.659 47.201,188.625 46.742 C 188.923 46.600,189.167 46.422,189.167 46.346 C 189.167 45.827,191.759 45.511,193.304 45.843 M201.091 46.076 C 201.492 46.476,201.500 46.541,201.500 49.181 C 201.500 52.596,201.869 53.415,203.254 53.067 C 204.007 52.878,204.166 52.193,204.169 49.130 C 204.172 46.042,204.180 46.017,205.243 45.818 C 207.576 45.382,207.661 45.559,207.664 50.855 C 207.667 56.030,207.772 55.733,205.955 55.675 C 205.292 55.653,204.525 55.642,204.250 55.649 C 203.975 55.655,203.028 55.677,202.145 55.695 L 200.540 55.730 199.732 55.019 C 198.304 53.762,198.137 53.235,198.044 49.706 C 197.956 46.381,197.972 46.309,198.917 45.898 C 199.744 45.537,200.624 45.609,201.091 46.076 M212.917 45.890 C 213.375 45.881,214.190 45.863,214.729 45.850 C 215.955 45.820,216.167 45.991,216.167 47.011 C 216.167 47.954,215.791 48.330,214.838 48.339 C 213.382 48.352,213.000 49.249,213.000 52.657 C 213.000 54.837,212.955 55.330,212.741 55.507 C 212.393 55.796,210.107 55.796,209.759 55.507 C 209.413 55.220,209.365 46.319,209.708 46.035 C 210.002 45.792,210.813 45.689,211.500 45.807 C 211.821 45.862,212.458 45.900,212.917 45.890 M223.522 46.170 C 223.671 46.345,223.848 46.847,223.913 47.286 C 223.979 47.724,224.116 48.233,224.217 48.417 C 224.319 48.600,224.523 49.237,224.671 49.833 C 225.018 51.234,225.181 51.199,225.455 49.667 C 225.578 48.979,225.821 48.117,225.996 47.750 C 226.170 47.383,226.399 46.844,226.505 46.552 C 226.960 45.301,229.992 45.362,230.257 46.628 C 230.309 46.878,230.488 47.383,230.653 47.750 C 230.819 48.117,231.088 49.033,231.250 49.787 C 231.597 51.391,231.720 51.406,232.003 49.877 C 232.118 49.257,232.352 48.472,232.523 48.132 C 232.694 47.792,232.836 47.304,232.839 47.048 C 232.850 46.024,233.996 45.493,235.422 45.852 C 236.308 46.075,236.543 46.572,236.090 47.263 C 235.936 47.497,235.698 48.228,235.561 48.886 C 235.424 49.545,235.159 50.421,234.973 50.833 C 234.786 51.246,234.530 52.071,234.403 52.667 C 233.845 55.289,233.160 55.953,231.250 55.724 L 230.083 55.583 229.857 54.833 C 229.732 54.421,229.488 53.783,229.315 53.417 C 229.141 53.050,228.892 52.236,228.761 51.608 C 228.630 50.980,228.485 50.429,228.439 50.383 C 228.265 50.210,228.000 50.536,228.000 50.922 C 228.000 51.143,227.808 51.757,227.572 52.287 C 227.337 52.817,227.074 53.621,226.987 54.074 C 226.734 55.401,226.508 55.621,225.275 55.753 C 223.438 55.950,222.632 55.276,222.311 53.273 C 222.239 52.827,222.028 52.170,221.842 51.812 C 221.655 51.455,221.386 50.619,221.242 49.956 C 221.098 49.293,220.842 48.487,220.671 48.167 C 220.283 47.436,220.112 46.489,220.312 46.185 C 220.689 45.613,223.037 45.602,223.522 46.170 M242.450 45.836 C 243.489 46.076,244.957 47.237,245.164 47.981 C 245.468 49.075,245.382 55.253,245.059 55.520 C 244.674 55.840,242.903 55.782,242.523 55.437 C 242.276 55.214,242.182 55.207,241.907 55.396 C 240.767 56.179,238.274 55.889,237.180 54.846 C 234.999 52.765,236.517 50.027,239.863 50.008 C 241.346 49.999,241.716 49.775,241.634 48.937 C 241.556 48.140,240.301 48.065,239.709 48.822 C 238.993 49.737,236.501 49.340,236.642 48.333 C 236.728 47.717,237.165 47.056,237.653 46.805 C 237.890 46.683,238.203 46.440,238.348 46.265 C 238.775 45.752,241.053 45.514,242.450 45.836 M264.383 46.026 C 265.874 46.819,266.426 47.437,266.884 48.826 C 267.725 51.379,267.714 51.389,263.849 51.502 C 260.567 51.598,260.350 51.652,260.886 52.237 C 261.086 52.456,261.355 52.764,261.484 52.922 C 261.839 53.356,263.557 53.172,263.976 52.655 C 264.352 52.191,265.869 52.163,266.365 52.612 C 266.826 53.029,266.467 54.667,265.914 54.667 C 265.854 54.667,265.492 54.886,265.111 55.153 C 263.928 55.982,260.788 56.053,259.743 55.275 C 258.840 54.602,257.500 53.174,257.495 52.879 C 257.492 52.716,257.349 52.177,257.177 51.681 C 256.892 50.853,256.886 50.715,257.114 50.014 C 257.250 49.594,257.402 49.063,257.452 48.833 C 257.576 48.263,258.492 47.067,259.000 46.809 C 259.229 46.693,259.586 46.450,259.793 46.269 C 260.463 45.682,263.442 45.525,264.383 46.026 M125.189 48.959 C 124.207 50.051,124.077 51.450,124.882 52.263 C 125.084 52.468,125.347 52.755,125.465 52.901 C 125.873 53.405,126.955 53.245,127.618 52.582 C 128.466 51.734,128.417 49.646,127.530 48.836 C 126.718 48.094,125.929 48.136,125.189 48.959 M137.554 48.440 C 136.710 48.784,136.217 51.202,136.823 52.022 C 137.012 52.278,137.167 52.562,137.167 52.654 C 137.167 53.339,138.715 53.318,139.408 52.625 C 141.096 50.937,139.617 47.598,137.554 48.440 M165.033 48.533 C 164.923 48.643,164.833 48.807,164.833 48.898 C 164.833 48.988,164.666 49.240,164.461 49.458 C 163.971 49.979,163.914 51.762,164.378 52.022 C 164.537 52.110,164.781 52.405,164.921 52.675 C 165.683 54.149,167.833 52.569,167.833 50.534 C 167.833 49.029,165.911 47.655,165.033 48.533 M190.898 48.648 C 190.750 48.821,190.444 49.168,190.217 49.419 C 189.661 50.037,189.612 51.519,190.132 52.003 C 190.320 52.179,190.522 52.472,190.580 52.655 C 190.865 53.555,192.753 53.251,193.307 52.216 C 194.346 50.274,192.211 47.112,190.898 48.648 M261.186 48.485 C 261.001 48.602,261.023 48.667,261.300 48.815 C 261.986 49.183,263.751 48.867,263.148 48.485 C 263.021 48.404,262.579 48.338,262.167 48.338 C 261.754 48.338,261.313 48.404,261.186 48.485 M239.874 52.875 C 239.954 53.120,240.703 53.235,241.277 53.091 C 241.934 52.927,241.546 52.667,240.643 52.667 C 240.048 52.667,239.825 52.727,239.874 52.875 " stroke="none" fill="#fafbfb" fill-rule="evenodd"></path><path id="path2" d="M51.663 29.657 L 30.409 29.750 29.545 30.494 C 27.718 32.067,27.622 33.221,27.701 52.531 L 27.750 64.645 28.190 65.114 C 28.431 65.372,28.685 65.767,28.753 65.991 C 29.007 66.829,30.483 68.153,31.486 68.441 C 31.998 68.589,32.754 68.876,33.167 69.081 C 33.579 69.285,34.206 69.497,34.559 69.552 C 34.913 69.607,35.513 69.815,35.893 70.014 C 36.273 70.214,37.033 70.483,37.583 70.613 C 38.132 70.743,38.765 70.969,38.990 71.116 C 39.214 71.263,39.889 71.516,40.490 71.678 C 41.092 71.840,42.033 72.165,42.583 72.399 C 43.133 72.634,43.726 72.827,43.901 72.829 C 44.075 72.832,44.609 73.018,45.086 73.244 C 45.564 73.470,46.308 73.734,46.740 73.831 C 47.172 73.928,47.876 74.182,48.304 74.396 C 48.733 74.610,49.373 74.830,49.726 74.885 C 50.080 74.940,50.680 75.148,51.059 75.348 C 51.439 75.547,52.193 75.815,52.735 75.943 C 53.277 76.071,53.989 76.323,54.318 76.503 C 54.647 76.684,55.367 76.941,55.917 77.074 C 56.467 77.208,57.270 77.441,57.703 77.593 C 59.220 78.126,62.167 76.696,62.167 75.427 C 62.167 75.218,62.392 74.625,62.667 74.110 L 63.167 73.173 63.167 68.747 C 63.167 64.853,63.201 64.269,63.452 63.887 L 63.737 63.452 66.535 63.565 C 68.765 63.656,69.333 63.635,69.333 63.465 C 69.333 63.226,69.450 63.239,65.750 63.079 C 63.913 62.999,62.967 62.890,62.708 62.728 L 62.333 62.492 62.333 54.490 C 62.333 45.286,62.422 45.839,60.686 44.199 C 59.693 43.260,59.233 43.000,58.565 43.000 C 58.338 43.000,57.961 42.809,57.727 42.576 C 57.391 42.239,57.077 42.130,56.211 42.049 C 55.334 41.967,55.012 41.854,54.579 41.474 C 54.191 41.133,53.863 41.000,53.414 41.000 C 52.509 41.000,51.464 40.647,51.376 40.312 C 51.326 40.122,51.064 39.987,50.609 39.918 C 49.034 39.676,48.843 39.620,48.578 39.327 C 48.236 38.949,48.375 38.702,49.098 38.400 C 50.102 37.980,76.061 38.061,76.485 38.485 C 76.787 38.787,76.807 39.206,76.877 46.693 C 76.927 52.016,77.013 54.746,77.141 55.083 C 77.399 55.763,77.267 33.030,77.008 32.150 C 76.822 31.519,75.717 30.296,74.984 29.912 C 74.314 29.560,74.199 29.559,51.663 29.657 M117.250 41.660 C 122.272 41.760,122.500 41.807,122.500 42.735 C 122.500 43.541,122.191 43.697,120.344 43.825 C 117.968 43.990,118.167 43.446,118.167 49.768 L 118.167 55.162 117.583 55.406 C 116.799 55.733,116.848 55.860,117.708 55.731 C 118.961 55.544,118.907 55.799,119.000 49.619 L 119.083 44.083 120.827 44.035 C 122.895 43.979,123.167 43.828,123.167 42.734 C 123.167 41.497,123.156 41.495,117.588 41.535 L 112.750 41.570 117.250 41.660 M248.833 41.667 C 248.971 41.756,249.237 41.829,249.425 41.831 C 250.159 41.836,250.167 41.910,250.167 48.694 C 250.167 55.850,250.222 55.500,249.094 55.500 C 248.859 55.500,248.667 55.585,248.667 55.688 C 248.667 56.002,250.149 55.753,250.420 55.394 C 250.614 55.139,250.657 53.917,250.661 48.551 L 250.667 42.019 250.296 41.759 C 250.093 41.617,249.624 41.501,249.255 41.503 C 248.760 41.504,248.649 41.548,248.833 41.667 M254.167 41.667 C 254.304 41.756,254.570 41.829,254.758 41.831 C 255.492 41.836,255.500 41.910,255.500 48.694 C 255.500 55.850,255.555 55.500,254.428 55.500 C 254.192 55.500,254.000 55.585,254.000 55.688 C 254.000 56.002,255.482 55.753,255.754 55.394 C 255.947 55.139,255.990 53.917,255.995 48.551 L 256.000 42.019 255.630 41.759 C 255.426 41.617,254.957 41.501,254.588 41.503 C 254.093 41.504,253.982 41.548,254.167 41.667 M271.375 42.914 C 271.782 43.299,271.833 43.466,271.833 44.414 C 271.833 45.563,272.135 46.000,272.928 46.000 C 274.215 46.000,274.146 47.815,272.849 48.061 C 271.872 48.246,271.833 48.343,271.833 50.567 C 271.833 52.827,271.974 53.228,272.835 53.417 C 274.203 53.717,274.191 55.500,272.821 55.500 C 272.553 55.500,272.333 55.585,272.333 55.689 C 272.333 55.971,273.629 55.752,274.013 55.405 C 274.587 54.885,274.343 53.333,273.686 53.333 C 272.771 53.333,272.667 53.066,272.667 50.726 L 272.667 48.506 273.125 48.400 C 274.779 48.016,274.862 46.233,273.250 45.717 C 272.769 45.563,272.748 45.514,272.701 44.467 C 272.647 43.255,272.340 42.807,271.417 42.596 L 270.917 42.482 271.375 42.914 M285.700 42.867 C 285.158 43.409,285.676 45.333,286.365 45.333 C 286.439 45.333,286.500 45.442,286.500 45.574 C 286.500 45.706,286.725 45.947,287.000 46.110 C 287.275 46.272,287.544 46.544,287.598 46.713 C 287.652 46.882,287.875 47.102,288.095 47.202 C 288.314 47.302,288.539 47.527,288.595 47.702 C 288.650 47.877,288.878 48.104,289.102 48.205 C 289.550 48.410,289.755 48.958,289.605 49.555 C 289.552 49.768,289.325 50.026,289.102 50.128 C 288.878 50.230,288.650 50.456,288.595 50.631 C 288.539 50.806,288.314 51.031,288.095 51.131 C 287.875 51.231,287.652 51.451,287.598 51.620 C 287.544 51.790,287.275 52.061,287.000 52.223 C 286.725 52.386,286.500 52.627,286.500 52.759 C 286.500 52.892,286.439 53.000,286.365 53.000 C 285.676 53.000,285.158 54.924,285.700 55.467 C 286.242 56.009,288.167 55.491,288.167 54.802 C 288.167 54.728,288.275 54.667,288.407 54.667 C 288.540 54.667,288.777 54.448,288.935 54.181 C 289.093 53.914,289.390 53.618,289.596 53.524 C 289.802 53.430,290.017 53.210,290.072 53.035 C 290.128 52.860,290.353 52.635,290.572 52.535 C 290.792 52.435,291.015 52.215,291.069 52.046 C 291.122 51.877,291.391 51.606,291.666 51.443 C 291.942 51.281,292.167 51.058,292.168 50.949 C 292.169 50.840,292.394 50.573,292.668 50.356 C 293.097 50.017,293.167 49.851,293.167 49.167 C 293.167 48.482,293.097 48.316,292.668 47.977 C 292.394 47.761,292.169 47.494,292.168 47.384 C 292.167 47.275,291.948 47.056,291.681 46.899 C 291.414 46.741,291.118 46.443,291.024 46.237 C 290.930 46.031,290.703 45.814,290.519 45.756 C 290.334 45.697,290.136 45.499,290.077 45.315 C 290.019 45.130,289.802 44.903,289.596 44.809 C 289.390 44.715,289.093 44.420,288.935 44.152 C 288.777 43.885,288.540 43.667,288.407 43.667 C 288.275 43.667,288.167 43.606,288.167 43.531 C 288.167 42.843,286.242 42.324,285.700 42.867 M287.332 43.747 C 287.454 43.975,287.696 44.206,287.870 44.262 C 288.044 44.317,288.266 44.535,288.362 44.746 C 288.458 44.957,288.717 45.212,288.938 45.313 C 289.159 45.414,289.412 45.684,289.499 45.915 C 289.587 46.145,289.776 46.333,289.920 46.333 C 290.064 46.333,290.310 46.559,290.466 46.834 C 290.622 47.109,290.869 47.373,291.014 47.419 C 291.388 47.540,292.167 48.787,292.167 49.265 C 292.167 49.658,292.023 49.885,291.317 50.608 C 290.737 51.202,288.996 52.947,288.609 53.322 C 288.503 53.425,288.090 53.844,287.690 54.254 C 286.863 55.102,286.881 55.095,286.471 54.724 C 286.058 54.350,286.088 54.098,286.581 53.835 C 286.808 53.713,287.040 53.471,287.095 53.296 C 287.150 53.122,287.359 52.905,287.558 52.815 C 287.757 52.724,288.047 52.428,288.202 52.158 C 288.358 51.888,288.602 51.667,288.746 51.667 C 288.890 51.667,289.080 51.478,289.167 51.248 C 289.255 51.018,289.507 50.747,289.728 50.646 C 290.579 50.259,290.787 47.833,289.970 47.833 C 289.891 47.833,289.422 47.414,288.929 46.901 C 287.663 45.586,287.733 45.657,286.915 44.859 C 286.166 44.128,286.101 43.688,286.706 43.444 C 287.063 43.301,287.104 43.321,287.332 43.747 M113.125 43.951 C 113.331 43.991,113.669 43.991,113.875 43.951 C 114.081 43.911,113.912 43.879,113.500 43.879 C 113.087 43.879,112.919 43.911,113.125 43.951 M126.221 45.786 C 126.278 45.878,126.668 46.001,127.087 46.058 C 127.511 46.116,128.094 46.349,128.399 46.581 C 128.701 46.812,129.021 47.000,129.109 47.000 C 129.492 47.000,130.336 48.095,130.751 49.129 C 131.398 50.741,131.369 51.142,130.465 53.100 C 130.019 54.067,128.254 55.282,127.058 55.446 C 125.812 55.617,125.987 55.891,127.255 55.756 C 128.300 55.644,129.000 55.402,129.000 55.152 C 129.000 55.096,129.299 54.916,129.665 54.751 C 130.112 54.549,130.470 54.212,130.756 53.725 C 130.989 53.326,131.245 53.000,131.324 53.000 C 131.590 53.000,131.877 51.303,131.791 50.232 C 131.694 49.035,130.638 47.200,129.833 46.834 C 129.604 46.729,129.154 46.466,128.833 46.249 C 128.225 45.837,126.010 45.444,126.221 45.786 M134.167 45.833 C 134.167 45.925,134.415 46.000,134.718 46.000 C 135.042 46.000,135.498 46.169,135.826 46.411 C 136.132 46.637,136.447 46.783,136.525 46.735 C 136.700 46.627,136.715 46.154,136.542 46.201 C 136.473 46.220,136.177 46.107,135.883 45.951 C 135.304 45.642,134.167 45.564,134.167 45.833 M138.500 45.833 C 138.500 45.925,138.753 46.000,139.063 46.000 C 144.051 46.000,144.191 54.902,139.212 55.463 C 138.349 55.560,138.085 55.836,138.865 55.826 C 139.938 55.812,140.835 55.543,141.273 55.106 C 141.515 54.864,141.797 54.667,141.900 54.667 C 142.003 54.667,142.273 54.367,142.500 54.000 C 142.727 53.633,142.962 53.333,143.023 53.333 C 143.443 53.333,143.719 49.109,143.339 48.500 C 142.526 47.198,141.130 45.981,140.255 45.812 C 139.306 45.627,138.500 45.637,138.500 45.833 M151.333 45.836 C 151.333 45.925,151.483 46.091,151.667 46.205 C 151.978 46.400,152.000 46.594,152.001 49.165 C 152.001 52.426,152.626 53.907,153.790 53.412 C 154.045 53.304,154.030 53.273,153.680 53.181 C 153.027 53.009,152.860 52.221,152.846 49.234 C 152.835 46.900,152.795 46.517,152.541 46.287 C 152.149 45.932,151.333 45.628,151.333 45.836 M156.667 45.833 C 156.667 45.925,156.877 46.000,157.135 46.000 C 158.184 46.000,158.177 45.966,158.128 50.826 L 158.083 55.235 157.698 55.326 C 157.182 55.448,157.242 55.759,157.774 55.717 C 158.666 55.646,158.667 55.644,158.664 50.855 C 158.663 48.414,158.606 46.334,158.539 46.233 C 158.220 45.756,156.667 45.424,156.667 45.833 M162.000 45.833 C 162.000 45.925,162.206 46.000,162.458 46.001 C 162.710 46.001,163.166 46.154,163.472 46.340 C 163.978 46.648,164.022 46.652,163.970 46.385 C 163.867 45.850,162.000 45.327,162.000 45.833 M166.167 45.833 C 166.167 45.925,166.453 46.000,166.804 46.000 C 167.877 46.000,169.713 47.288,170.071 48.293 C 170.226 48.728,170.424 49.214,170.510 49.373 C 170.977 50.235,170.346 53.108,169.506 53.949 C 168.673 54.781,167.408 55.500,166.774 55.500 C 166.430 55.500,166.167 55.582,166.167 55.690 C 166.167 56.136,168.181 55.700,168.973 55.083 C 169.385 54.762,169.770 54.500,169.830 54.500 C 169.930 54.500,170.251 53.965,171.027 52.506 C 171.516 51.585,171.381 48.730,170.829 48.333 C 170.765 48.288,170.586 48.001,170.430 47.697 C 170.274 47.392,169.895 46.995,169.588 46.814 C 169.281 46.633,168.991 46.383,168.943 46.259 C 168.788 45.855,166.167 45.453,166.167 45.833 M177.000 45.833 C 177.000 45.925,177.225 46.000,177.500 46.000 C 178.053 46.000,178.666 46.504,178.667 46.958 C 178.668 47.119,178.807 47.479,178.978 47.758 C 179.149 48.038,179.457 48.751,179.664 49.342 C 180.017 50.352,180.552 51.167,180.862 51.167 C 181.124 51.167,180.998 50.610,180.572 49.883 C 180.337 49.482,180.034 48.781,179.899 48.326 C 179.580 47.252,178.851 46.071,178.367 45.845 C 177.885 45.620,177.000 45.612,177.000 45.833 M184.502 45.792 C 184.503 45.860,184.810 46.045,185.184 46.203 L 185.864 46.488 185.540 46.953 C 185.361 47.208,185.162 47.642,185.097 47.917 C 185.032 48.192,184.769 48.867,184.512 49.417 C 184.254 49.967,183.815 50.907,183.534 51.506 C 183.254 52.105,182.970 52.818,182.904 53.089 C 182.838 53.361,182.570 53.988,182.308 54.482 C 182.047 54.976,181.833 55.491,181.833 55.626 C 181.833 55.761,181.649 56.219,181.423 56.644 C 181.198 57.069,180.829 57.843,180.604 58.363 C 180.309 59.047,180.041 59.394,179.639 59.613 L 179.083 59.916 179.641 59.970 C 180.331 60.036,180.776 59.666,180.998 58.841 C 181.088 58.508,181.295 58.089,181.460 57.910 C 181.624 57.730,181.858 57.246,181.979 56.833 C 182.100 56.421,182.281 55.933,182.381 55.750 C 182.868 54.858,183.167 54.156,183.167 53.903 C 183.167 53.750,183.382 53.240,183.645 52.770 C 183.908 52.301,184.170 51.669,184.226 51.367 C 184.282 51.065,184.504 50.578,184.719 50.284 C 184.935 49.990,185.207 49.413,185.324 49.000 C 185.442 48.587,185.668 48.063,185.828 47.833 C 186.184 47.322,186.367 46.615,186.233 46.266 C 186.095 45.906,184.497 45.468,184.502 45.792 M191.750 45.833 C 191.807 45.925,192.055 46.000,192.302 46.000 C 192.548 46.000,192.987 46.132,193.277 46.292 C 193.567 46.452,194.170 46.783,194.618 47.028 C 197.128 48.396,197.176 53.185,194.693 54.435 C 194.308 54.629,193.859 54.910,193.693 55.059 C 193.528 55.209,193.039 55.380,192.608 55.439 C 191.329 55.614,191.456 55.895,192.752 55.756 C 194.375 55.582,195.965 54.445,196.838 52.833 C 197.367 51.858,196.994 48.004,196.371 47.999 C 196.304 47.998,196.122 47.773,195.966 47.499 C 195.810 47.224,195.472 46.907,195.216 46.793 C 194.960 46.679,194.609 46.458,194.437 46.302 C 193.938 45.850,191.497 45.425,191.750 45.833 M199.417 45.833 C 199.473 45.925,199.662 46.000,199.835 46.000 C 200.009 46.000,200.342 46.087,200.575 46.193 L 201.000 46.387 201.001 49.318 C 201.001 52.661,201.160 53.221,202.151 53.367 C 202.678 53.444,202.865 53.232,202.420 53.062 C 201.685 52.779,201.500 52.001,201.500 49.181 C 201.500 46.541,201.492 46.476,201.091 46.076 C 200.677 45.662,199.177 45.445,199.417 45.833 M205.833 45.801 C 205.833 45.896,206.093 46.060,206.411 46.165 L 206.989 46.356 207.036 50.636 C 207.086 55.187,207.076 55.253,206.322 55.419 C 205.556 55.587,205.743 55.851,206.542 55.729 C 207.715 55.550,207.667 55.762,207.667 50.825 C 207.667 46.091,207.626 45.837,206.863 45.831 C 206.709 45.830,206.415 45.784,206.208 45.728 C 205.996 45.671,205.833 45.703,205.833 45.801 M211.174 45.774 C 211.183 45.967,212.297 46.667,212.595 46.667 C 213.139 46.667,212.836 46.038,212.238 45.925 C 211.911 45.864,211.536 45.773,211.405 45.722 C 211.274 45.672,211.170 45.695,211.174 45.774 M221.898 45.803 C 221.957 45.898,222.263 46.061,222.578 46.165 C 223.218 46.376,223.215 46.370,223.578 48.324 C 223.825 49.659,224.513 51.500,224.765 51.500 C 224.979 51.500,224.672 49.477,224.345 48.737 C 224.167 48.335,223.970 47.664,223.907 47.247 C 223.845 46.829,223.671 46.347,223.522 46.174 C 223.233 45.840,221.705 45.491,221.898 45.803 M228.333 45.826 C 228.333 45.913,228.598 46.035,228.921 46.095 C 229.608 46.224,229.741 46.425,229.975 47.690 C 230.070 48.206,230.340 49.099,230.574 49.676 C 230.808 50.252,231.000 50.789,231.000 50.867 C 231.000 51.457,231.533 52.234,231.743 51.951 C 231.965 51.651,231.905 50.936,231.671 51.081 C 231.602 51.123,231.413 50.541,231.250 49.787 C 231.088 49.033,230.819 48.117,230.653 47.750 C 230.488 47.383,230.309 46.878,230.257 46.628 C 230.119 45.966,228.333 45.222,228.333 45.826 M235.068 46.060 L 235.552 46.470 235.334 47.527 C 235.214 48.108,234.980 48.883,234.816 49.250 C 234.651 49.617,234.369 50.479,234.190 51.167 C 234.010 51.854,233.707 52.860,233.515 53.401 C 233.323 53.942,233.167 54.519,233.167 54.683 C 233.167 55.076,232.542 55.500,231.963 55.500 C 231.708 55.500,231.500 55.575,231.500 55.667 C 231.500 55.875,232.345 55.884,232.879 55.681 C 233.393 55.486,234.101 54.086,234.403 52.667 C 234.530 52.071,234.786 51.246,234.973 50.833 C 235.159 50.421,235.424 49.545,235.561 48.886 C 235.698 48.228,235.936 47.497,236.090 47.263 C 236.474 46.677,236.300 46.068,235.710 45.927 C 235.457 45.867,235.100 45.780,234.917 45.734 C 234.656 45.668,234.689 45.740,235.068 46.060 M240.389 45.778 C 240.450 45.839,240.920 45.946,241.432 46.016 C 244.125 46.381,244.808 47.537,244.845 51.792 C 244.875 55.172,244.827 55.418,244.113 55.544 C 243.800 55.599,243.789 55.626,244.032 55.735 C 244.190 55.806,244.517 55.763,244.782 55.637 L 245.250 55.412 245.295 52.029 C 245.356 47.446,244.874 46.396,242.450 45.836 C 241.650 45.652,240.222 45.611,240.389 45.778 M262.068 45.809 C 262.133 45.914,262.396 46.000,262.652 46.000 C 263.211 46.000,264.167 46.314,264.167 46.497 C 264.167 46.570,264.427 46.752,264.746 46.904 C 265.812 47.409,266.497 48.726,266.499 50.274 C 266.500 51.204,266.416 51.230,263.101 51.331 C 259.833 51.430,259.586 51.540,260.408 52.524 C 261.115 53.372,262.667 53.928,262.667 53.333 C 262.667 53.242,262.445 53.167,262.173 53.167 C 261.902 53.167,261.583 53.047,261.465 52.901 C 261.347 52.755,261.086 52.456,260.886 52.237 C 260.350 51.652,260.567 51.598,263.849 51.502 C 267.714 51.389,267.725 51.379,266.884 48.826 C 266.428 47.443,265.873 46.817,264.409 46.039 C 263.891 45.764,261.921 45.570,262.068 45.809 M214.500 45.925 C 214.500 45.976,214.725 46.096,215.000 46.192 C 215.441 46.345,215.500 46.443,215.500 47.020 C 215.500 47.739,215.417 47.802,213.976 48.169 C 212.716 48.491,212.458 49.181,212.342 52.544 L 212.250 55.230 211.708 55.370 C 210.904 55.577,211.034 55.858,211.875 55.729 C 213.010 55.556,213.000 55.583,213.000 52.657 C 213.000 49.249,213.382 48.352,214.838 48.339 C 215.982 48.328,216.731 46.798,215.967 46.033 C 215.771 45.838,214.500 45.744,214.500 45.925 M125.175 48.300 C 123.683 49.036,123.454 51.835,124.787 53.041 C 125.173 53.391,126.667 53.641,126.667 53.356 C 126.667 53.252,126.445 53.167,126.173 53.167 C 125.902 53.167,125.583 53.047,125.465 52.901 C 125.347 52.755,125.088 52.471,124.889 52.270 C 123.799 51.167,124.756 48.333,126.218 48.333 C 126.465 48.333,126.667 48.258,126.667 48.167 C 126.667 47.909,125.814 47.985,125.175 48.300 M137.250 48.192 C 135.397 49.136,135.376 52.261,137.216 53.284 C 137.662 53.532,138.500 53.564,138.500 53.333 C 138.500 53.242,138.345 53.167,138.156 53.167 C 137.726 53.167,137.167 52.877,137.167 52.654 C 137.167 52.562,137.012 52.278,136.823 52.022 C 135.969 50.867,136.902 48.333,138.180 48.333 C 138.356 48.333,138.500 48.258,138.500 48.167 C 138.500 47.954,137.686 47.970,137.250 48.192 M164.717 48.326 C 163.129 49.294,163.117 52.198,164.697 53.162 C 165.286 53.521,166.080 53.609,166.250 53.333 C 166.311 53.234,166.114 53.167,165.764 53.167 C 165.281 53.167,165.130 53.079,164.921 52.675 C 164.781 52.405,164.537 52.110,164.378 52.022 C 163.950 51.782,163.969 49.994,164.405 49.513 C 164.578 49.321,164.804 48.996,164.906 48.791 C 165.039 48.521,165.266 48.402,165.716 48.365 C 166.059 48.336,166.297 48.242,166.244 48.156 C 166.081 47.894,165.280 47.983,164.717 48.326 M190.210 48.585 C 188.488 50.059,189.328 53.500,191.410 53.500 C 192.204 53.500,192.160 53.235,191.345 53.104 C 190.887 53.031,190.656 52.897,190.581 52.661 C 190.522 52.475,190.320 52.179,190.132 52.003 C 189.612 51.519,189.661 50.037,190.217 49.419 C 190.444 49.168,190.750 48.821,190.898 48.648 C 191.046 48.475,191.354 48.333,191.583 48.333 C 191.813 48.333,192.000 48.258,192.000 48.167 C 192.000 47.752,190.877 48.014,190.210 48.585 M239.455 48.402 C 239.129 48.622,238.731 48.829,238.570 48.860 C 237.992 48.972,238.114 49.333,238.731 49.333 C 239.196 49.333,239.403 49.226,239.693 48.833 C 239.974 48.453,240.195 48.333,240.615 48.333 C 240.918 48.333,241.167 48.258,241.167 48.167 C 241.167 47.846,240.046 48.000,239.455 48.402 M260.833 48.218 C 259.664 48.617,260.283 49.138,261.917 49.129 L 262.750 49.125 262.083 49.015 C 260.763 48.797,260.735 48.341,262.042 48.336 C 262.385 48.334,262.667 48.258,262.667 48.167 C 262.667 47.941,261.553 47.972,260.833 48.218 M227.376 50.963 C 227.086 51.579,226.797 52.421,226.734 52.833 C 226.568 53.915,226.012 55.009,225.471 55.317 C 224.826 55.683,224.882 55.829,225.625 55.722 C 226.381 55.612,226.790 55.182,226.919 54.363 C 226.972 54.026,227.231 53.188,227.494 52.500 C 228.373 50.200,228.284 49.032,227.376 50.963 M239.542 52.537 C 239.110 52.745,239.076 52.884,239.391 53.145 C 239.716 53.415,240.667 53.579,240.667 53.366 C 240.667 53.269,240.504 53.166,240.305 53.137 C 239.623 53.036,239.758 52.667,240.476 52.667 C 240.845 52.667,241.193 52.592,241.250 52.500 C 241.389 52.274,240.025 52.304,239.542 52.537 M265.167 52.488 C 265.167 52.574,265.335 52.667,265.542 52.697 C 267.034 52.909,264.974 55.183,263.050 55.447 C 261.799 55.619,261.985 55.898,263.266 55.770 C 264.158 55.680,264.573 55.544,265.111 55.161 C 265.492 54.889,265.854 54.667,265.914 54.667 C 266.448 54.667,266.810 53.102,266.386 52.633 C 266.107 52.324,265.167 52.213,265.167 52.488 M136.143 55.112 C 135.987 55.299,135.899 56.024,135.861 57.442 L 135.806 59.500 135.361 59.598 C 134.195 59.854,134.063 59.973,134.933 59.987 C 136.192 60.006,136.333 59.778,136.333 57.716 C 136.333 56.240,136.372 56.013,136.661 55.812 C 136.980 55.589,136.981 55.575,136.678 55.212 C 136.395 54.872,136.349 54.864,136.143 55.112 M241.500 55.085 C 241.271 55.210,240.802 55.362,240.459 55.421 C 240.116 55.480,239.789 55.604,239.732 55.695 C 239.580 55.942,241.533 55.678,241.811 55.415 C 242.186 55.060,241.968 54.829,241.500 55.085 M154.500 55.260 C 154.179 55.382,153.748 55.485,153.542 55.491 C 153.335 55.496,153.167 55.580,153.167 55.679 C 153.167 55.897,154.978 55.710,155.292 55.459 C 155.853 55.011,155.437 54.906,154.500 55.260 M163.739 55.284 C 163.665 55.449,163.562 56.482,163.511 57.581 L 163.417 59.579 162.790 59.680 C 161.877 59.828,161.827 60.000,162.696 60.000 C 163.863 60.000,163.965 59.791,164.021 57.298 C 164.067 55.196,163.999 54.709,163.739 55.284 M203.333 55.264 C 203.104 55.391,202.710 55.496,202.458 55.498 C 202.206 55.499,202.000 55.584,202.000 55.686 C 202.000 55.815,202.290 55.836,202.943 55.754 C 204.114 55.608,204.333 55.525,204.333 55.232 C 204.333 54.944,203.884 54.958,203.333 55.264 " stroke="none" fill="#7dadfb" fill-rule="evenodd"></path><path id="path3" d="M112.042 41.915 C 111.582 42.115,111.500 42.237,111.500 42.722 C 111.500 43.550,111.808 43.708,113.649 43.818 C 116.031 43.962,115.833 43.423,115.833 49.775 L 115.833 55.175 116.261 55.337 C 117.214 55.700,117.167 56.001,117.167 49.617 C 117.167 45.263,117.219 43.681,117.367 43.533 C 117.650 43.250,118.752 43.284,119.000 43.583 C 119.148 43.761,119.538 43.833,120.354 43.833 L 121.500 43.833 121.500 42.750 L 121.500 41.667 117.042 41.673 C 113.580 41.678,112.462 41.732,112.042 41.915 M248.208 41.946 L 247.833 42.207 247.833 48.592 C 247.833 55.393,247.846 55.500,248.637 55.500 C 248.894 55.500,248.917 54.947,248.917 48.583 C 248.917 44.078,248.859 41.670,248.750 41.675 C 248.658 41.680,248.415 41.802,248.208 41.946 M253.542 41.946 L 253.167 42.207 253.167 48.592 C 253.167 55.393,253.179 55.500,253.970 55.500 C 254.228 55.500,254.250 54.947,254.250 48.583 C 254.250 44.078,254.192 41.670,254.083 41.675 C 253.992 41.680,253.748 41.802,253.542 41.946 M270.333 42.982 C 269.964 43.085,269.904 43.216,269.802 44.128 C 269.657 45.438,269.537 45.639,268.646 46.067 C 267.692 46.525,267.499 47.455,268.284 47.817 C 269.727 48.483,269.574 48.130,269.667 51.006 C 269.715 52.516,269.831 53.721,269.945 53.917 C 270.382 54.666,271.295 55.360,271.960 55.449 L 272.626 55.538 272.460 54.695 C 272.314 53.960,272.237 53.845,271.855 53.801 L 271.417 53.750 271.371 50.788 L 271.326 47.827 271.829 47.726 C 272.563 47.579,272.601 46.386,271.875 46.303 L 271.417 46.250 271.369 44.542 C 271.318 42.690,271.328 42.706,270.333 42.982 M124.873 46.173 C 124.666 46.256,124.333 46.476,124.133 46.662 C 123.934 46.848,123.691 47.000,123.594 47.000 C 123.496 47.000,123.110 47.357,122.735 47.792 C 120.340 50.573,122.300 55.240,125.962 55.473 C 127.013 55.540,127.016 55.539,126.913 55.127 C 126.736 54.423,127.337 54.071,128.630 54.123 C 128.747 54.127,128.964 53.895,129.111 53.607 C 129.259 53.319,129.433 53.046,129.498 53.000 C 130.110 52.569,130.229 49.502,129.661 48.781 C 129.475 48.544,129.216 48.145,129.086 47.894 C 128.887 47.512,128.721 47.429,128.050 47.376 C 127.154 47.306,126.765 46.964,126.912 46.375 C 127.016 45.962,125.718 45.833,124.873 46.173 M133.776 46.305 C 133.529 46.577,133.500 47.285,133.500 52.962 L 133.500 59.314 133.870 59.574 C 134.558 60.055,134.586 59.954,134.534 57.177 C 134.486 54.623,134.498 54.513,134.834 54.333 C 135.350 54.057,135.880 54.194,136.118 54.667 C 136.234 54.896,136.330 55.018,136.331 54.939 C 136.332 54.860,136.530 54.924,136.771 55.082 C 137.517 55.571,139.261 55.649,138.975 55.180 C 138.683 54.702,139.165 54.263,140.157 54.104 C 140.607 54.032,140.833 53.910,140.833 53.740 C 140.833 53.600,141.058 53.357,141.332 53.201 L 141.831 52.917 141.832 50.804 L 141.833 48.692 141.140 48.013 C 140.756 47.637,140.284 47.333,140.083 47.333 C 139.516 47.333,139.048 46.729,139.300 46.324 C 139.490 46.021,139.454 46.000,138.750 46.000 C 137.920 46.000,136.500 46.579,136.500 46.917 C 136.500 47.188,136.125 47.333,135.423 47.333 C 134.765 47.333,134.432 46.987,134.541 46.418 C 134.639 45.905,134.197 45.840,133.776 46.305 M150.102 46.216 C 149.834 46.412,149.812 46.731,149.862 49.757 C 149.920 53.298,149.934 53.357,150.917 54.421 C 151.776 55.352,153.829 55.942,153.591 55.190 C 153.440 54.717,153.643 54.374,154.185 54.185 C 154.750 53.988,155.167 54.096,155.167 54.440 C 155.167 54.570,155.298 54.726,155.458 54.786 C 155.619 54.845,155.946 55.037,156.186 55.212 C 157.019 55.819,157.330 55.567,157.057 54.506 C 156.880 53.821,156.834 52.651,156.869 49.797 C 156.918 45.929,156.893 45.776,156.292 46.232 C 156.034 46.428,156.000 46.783,156.000 49.272 L 156.000 52.091 155.488 52.712 C 155.093 53.191,154.854 53.334,154.446 53.334 C 154.155 53.335,153.692 53.453,153.417 53.596 C 151.663 54.512,151.454 54.090,151.488 49.682 L 151.516 46.000 150.957 46.000 C 150.649 46.000,150.264 46.097,150.102 46.216 M161.537 46.259 L 161.167 46.519 161.167 52.917 L 161.167 59.314 161.537 59.574 C 162.224 60.055,162.252 59.955,162.200 57.176 L 162.151 54.518 162.582 54.235 C 163.124 53.881,163.833 54.131,163.833 54.677 C 163.833 54.887,163.917 54.997,164.042 54.952 C 164.156 54.911,164.384 54.994,164.548 55.137 C 164.980 55.513,167.000 55.652,166.694 55.284 C 166.533 55.089,166.523 54.935,166.655 54.689 C 166.836 54.350,166.995 54.276,167.958 54.083 C 168.256 54.023,168.500 53.874,168.500 53.753 C 168.500 53.631,168.762 53.217,169.083 52.833 C 169.663 52.140,169.667 52.125,169.667 50.501 L 169.667 48.866 168.889 48.100 C 168.355 47.573,167.972 47.333,167.665 47.333 C 167.010 47.333,166.532 46.754,166.814 46.302 C 167.115 45.821,165.464 45.935,164.735 46.446 C 164.468 46.633,164.156 46.753,164.042 46.712 C 163.921 46.670,163.833 46.777,163.833 46.968 C 163.833 47.340,163.287 47.544,162.701 47.391 C 162.313 47.289,162.061 46.683,162.227 46.250 C 162.352 45.925,162.008 45.929,161.537 46.259 M176.423 46.225 C 176.085 46.472,176.375 47.690,177.006 48.667 C 177.154 48.896,177.370 49.346,177.485 49.667 C 177.688 50.228,178.040 51.004,179.150 53.333 C 179.774 54.642,179.799 55.328,179.255 56.257 C 179.029 56.643,178.721 57.325,178.571 57.771 C 178.421 58.218,178.185 58.712,178.046 58.869 C 177.740 59.214,177.876 59.666,178.286 59.669 C 178.450 59.670,178.759 59.718,178.973 59.775 C 179.286 59.859,179.356 59.818,179.329 59.565 C 179.235 58.693,179.366 58.217,179.834 57.717 C 180.189 57.339,180.333 57.019,180.333 56.610 C 180.333 56.206,180.477 55.882,180.817 55.518 C 181.200 55.107,181.325 54.784,181.417 53.958 C 181.506 53.164,181.640 52.798,181.983 52.417 C 182.231 52.142,182.533 51.617,182.656 51.250 C 182.778 50.883,183.018 50.384,183.189 50.141 C 183.360 49.898,183.500 49.451,183.500 49.149 C 183.500 48.773,183.651 48.439,183.979 48.091 C 184.594 47.439,184.851 46.000,184.353 46.000 C 183.804 46.000,183.222 46.622,182.996 47.452 C 182.876 47.891,182.609 48.626,182.402 49.086 C 182.195 49.546,181.973 50.146,181.907 50.419 C 181.744 51.105,181.341 51.547,181.078 51.329 C 180.860 51.148,180.673 51.578,180.669 52.274 C 180.662 53.430,179.540 52.133,179.170 50.542 C 179.058 50.060,178.915 49.667,178.853 49.667 C 178.611 49.667,178.167 48.672,178.167 48.130 C 178.167 47.715,178.030 47.432,177.658 47.075 C 177.346 46.776,177.178 46.473,177.225 46.294 C 177.319 45.935,176.871 45.897,176.423 46.225 M190.223 46.292 C 189.933 46.452,189.385 46.755,189.006 46.966 C 188.627 47.176,188.270 47.476,188.212 47.633 C 188.154 47.789,187.973 48.035,187.810 48.181 C 186.388 49.445,187.143 53.578,188.968 54.518 C 189.215 54.646,189.553 54.873,189.720 55.023 C 190.423 55.656,192.326 55.702,192.207 55.082 C 192.090 54.471,192.398 54.218,193.414 54.091 C 194.069 54.009,194.344 53.896,194.412 53.682 C 194.463 53.520,194.692 53.287,194.919 53.165 C 195.328 52.947,195.333 52.915,195.332 50.764 L 195.331 48.583 194.832 48.299 C 194.558 48.143,194.333 47.905,194.333 47.770 C 194.333 47.597,194.062 47.490,193.422 47.410 C 192.389 47.281,192.082 47.025,192.235 46.419 C 192.368 45.889,191.097 45.809,190.223 46.292 M199.125 46.180 C 198.691 46.433,198.694 52.608,199.129 53.516 C 199.643 54.589,200.672 55.341,201.782 55.455 C 202.639 55.543,202.726 55.525,202.539 55.298 C 202.254 54.953,202.440 54.540,203.012 54.244 C 203.728 53.873,203.996 53.937,204.110 54.507 C 204.178 54.851,204.298 54.999,204.481 54.968 C 204.629 54.943,204.935 55.052,205.162 55.211 C 206.009 55.805,206.000 55.851,206.000 50.750 C 206.000 47.851,205.938 46.000,205.841 46.000 C 204.940 46.000,204.870 46.210,204.801 49.144 C 204.718 52.675,204.531 53.182,203.252 53.365 C 202.796 53.430,202.396 53.562,202.364 53.658 C 202.301 53.848,201.358 53.896,200.930 53.732 C 200.785 53.677,200.667 53.452,200.667 53.232 C 200.667 53.013,200.603 52.833,200.526 52.833 C 199.786 52.833,199.667 52.314,199.667 49.105 C 199.667 47.397,199.610 46.002,199.542 46.005 C 199.473 46.008,199.285 46.087,199.125 46.180 M210.375 46.172 L 210.000 46.323 210.000 50.749 L 210.000 55.175 210.428 55.337 C 211.353 55.689,211.333 55.751,211.333 52.438 C 211.333 48.725,211.387 48.397,212.066 47.983 C 212.616 47.648,213.909 47.552,214.083 47.833 C 214.309 48.198,214.459 47.956,214.565 47.060 C 214.625 46.543,214.638 46.083,214.593 46.037 C 214.473 45.918,213.500 46.347,213.500 46.520 C 213.500 46.601,213.368 46.667,213.206 46.667 C 213.045 46.667,212.837 46.835,212.746 47.042 C 212.390 47.844,211.246 47.346,211.408 46.458 C 211.500 45.956,211.152 45.860,210.375 46.172 M221.083 46.196 C 220.900 46.299,220.728 46.400,220.701 46.421 C 220.674 46.442,220.797 46.788,220.976 47.188 C 221.154 47.589,221.393 48.329,221.506 48.833 C 221.619 49.337,221.839 50.012,221.995 50.333 C 222.150 50.654,222.374 51.367,222.492 51.917 C 222.610 52.467,222.838 53.179,222.999 53.500 C 223.161 53.821,223.345 54.328,223.410 54.626 C 223.547 55.263,223.912 55.500,224.754 55.500 L 225.363 55.500 225.271 54.843 C 225.155 54.015,225.531 52.732,226.071 52.109 C 226.308 51.836,226.565 51.234,226.676 50.692 C 227.069 48.778,227.470 48.295,227.846 49.284 C 227.977 49.628,228.049 49.667,228.250 49.500 C 228.510 49.284,228.470 49.219,229.112 50.917 C 229.698 52.464,230.000 53.403,230.000 53.672 C 230.000 54.260,230.515 55.181,230.932 55.339 C 231.570 55.582,231.885 55.543,231.768 55.237 C 231.590 54.774,231.848 54.169,232.268 54.064 C 232.569 53.988,232.667 53.850,232.667 53.499 C 232.667 53.244,232.893 52.483,233.170 51.809 C 233.447 51.135,233.717 50.133,233.771 49.583 C 233.826 49.020,234.073 48.146,234.337 47.583 C 235.125 45.900,235.060 45.676,233.934 46.189 C 233.439 46.415,233.388 46.530,233.163 47.941 C 233.067 48.541,232.729 49.688,232.411 50.492 C 232.093 51.295,231.833 52.071,231.833 52.216 C 231.833 53.954,229.988 51.409,229.593 49.126 C 229.512 48.656,229.389 48.478,229.092 48.404 C 228.642 48.291,228.506 47.917,228.502 46.792 C 228.498 45.346,227.000 45.830,226.750 47.357 C 226.685 47.757,226.494 48.421,226.327 48.833 C 226.160 49.246,225.858 50.127,225.655 50.792 C 225.255 52.106,225.226 52.140,224.899 51.708 C 224.700 51.447,224.677 51.473,224.672 51.964 C 224.664 52.755,224.134 53.917,224.047 53.333 C 224.013 53.104,223.848 52.617,223.680 52.250 C 223.090 50.958,223.000 50.644,223.000 49.858 C 223.000 49.259,222.875 48.868,222.485 48.254 C 222.072 47.602,221.982 47.301,222.028 46.721 C 222.091 45.937,221.819 45.786,221.083 46.196 M239.011 46.376 C 238.696 46.582,238.246 46.868,238.011 47.012 C 237.697 47.205,237.569 47.441,237.531 47.899 C 237.446 48.914,238.184 49.453,238.412 48.543 C 238.608 47.762,239.578 47.285,239.902 47.810 C 239.951 47.888,240.349 47.995,240.787 48.047 C 242.162 48.211,242.500 48.411,242.500 49.059 C 242.500 49.857,242.246 49.993,240.389 50.197 C 237.090 50.559,235.790 52.616,237.634 54.557 C 238.646 55.622,240.338 55.924,240.204 55.015 C 240.148 54.633,240.225 54.469,240.565 54.246 C 241.111 53.889,241.833 54.032,241.833 54.498 C 241.833 54.714,241.915 54.792,242.076 54.730 C 242.211 54.678,242.510 54.828,242.750 55.068 C 243.598 55.916,244.324 55.504,243.750 54.500 C 243.568 54.182,243.510 53.366,243.506 51.055 C 243.499 47.438,243.527 47.537,242.477 47.398 C 241.590 47.280,241.231 46.917,241.419 46.327 C 241.580 45.820,239.806 45.855,239.011 46.376 M260.833 46.216 C 260.033 46.602,258.833 47.416,258.833 47.573 C 258.833 47.660,258.646 47.927,258.418 48.165 C 257.335 49.296,257.439 52.150,258.617 53.580 C 259.033 54.086,259.434 54.500,259.508 54.500 C 259.581 54.500,259.876 54.698,260.164 54.940 C 260.583 55.292,260.910 55.395,261.817 55.460 L 262.948 55.541 262.877 55.053 C 262.776 54.364,263.227 54.079,264.523 54.014 C 264.750 54.002,265.333 53.105,265.333 52.766 C 265.333 52.533,264.528 52.693,264.271 52.977 C 264.085 53.182,263.653 53.322,262.988 53.392 C 262.436 53.449,261.843 53.572,261.670 53.665 C 260.911 54.071,259.500 53.595,259.500 52.932 C 259.500 52.860,259.343 52.580,259.150 52.310 C 258.391 51.244,259.524 50.434,260.877 51.076 C 261.326 51.289,261.896 51.334,263.674 51.297 L 265.906 51.250 265.855 50.417 C 265.825 49.918,265.710 49.530,265.569 49.450 C 265.439 49.377,265.333 49.209,265.333 49.076 C 265.333 48.215,264.772 47.535,263.975 47.429 C 263.027 47.303,262.602 46.947,262.741 46.393 C 262.856 45.937,261.646 45.824,260.833 46.216 M125.583 47.833 C 125.640 47.925,125.868 48.000,126.091 48.000 C 127.843 48.000,128.747 48.939,128.739 50.750 C 128.731 52.580,128.190 53.249,126.564 53.440 C 126.066 53.499,125.617 53.611,125.569 53.690 C 125.384 53.989,124.336 53.840,124.040 53.474 C 123.881 53.276,123.506 52.836,123.208 52.495 C 122.270 51.423,122.391 49.958,123.525 48.654 C 124.381 47.670,125.265 47.318,125.583 47.833 M137.570 47.811 C 137.619 47.891,138.037 48.006,138.498 48.067 C 139.676 48.224,139.773 48.279,140.334 49.110 C 141.417 50.714,140.580 53.126,138.854 53.374 C 138.372 53.444,137.837 53.575,137.666 53.667 C 136.889 54.083,135.500 53.820,135.500 53.257 C 135.500 53.051,135.275 52.647,135.000 52.360 C 134.549 51.888,134.500 51.730,134.500 50.750 C 134.500 49.770,134.549 49.612,135.000 49.140 C 135.275 48.853,135.500 48.493,135.500 48.342 C 135.500 47.763,137.261 47.312,137.570 47.811 M165.069 47.810 C 165.117 47.888,165.515 47.995,165.953 48.047 C 167.584 48.241,168.341 49.064,168.363 50.665 C 168.376 51.561,167.631 53.129,167.137 53.246 C 164.234 53.935,163.469 53.928,163.257 53.208 C 163.156 52.863,162.991 52.667,162.805 52.667 C 162.346 52.667,162.167 52.128,162.167 50.750 C 162.167 49.344,162.346 48.833,162.839 48.833 C 163.025 48.833,163.167 48.721,163.167 48.572 C 163.167 47.820,164.696 47.207,165.069 47.810 M190.903 47.811 C 190.952 47.891,191.433 48.006,191.972 48.067 C 193.047 48.189,193.223 48.292,193.885 49.197 C 194.577 50.144,194.525 51.486,193.757 52.500 C 193.159 53.289,193.121 53.304,190.394 53.775 C 189.600 53.912,189.298 53.648,188.523 52.137 L 187.811 50.750 188.501 49.426 C 189.340 47.816,190.446 47.072,190.903 47.811 M261.068 47.809 C 261.117 47.887,261.691 48.001,262.344 48.062 C 264.641 48.275,264.727 48.969,262.478 49.130 C 261.787 49.179,261.162 49.314,261.034 49.442 C 260.510 49.967,259.333 49.560,259.333 48.854 C 259.333 48.150,260.751 47.296,261.068 47.809 M241.500 51.573 C 241.500 52.060,241.282 52.226,240.832 52.083 C 240.257 51.900,240.551 51.167,241.200 51.167 C 241.407 51.167,241.500 51.293,241.500 51.573 M239.929 52.187 C 239.979 52.267,240.411 52.333,240.889 52.333 C 242.761 52.333,242.869 53.175,241.024 53.386 C 240.533 53.442,240.029 53.574,239.904 53.678 C 239.638 53.898,238.529 53.932,238.331 53.725 C 238.180 53.568,238.119 53.144,238.147 52.469 C 238.172 51.905,239.614 51.676,239.929 52.187 M74.223 55.487 C 74.039 55.974,73.982 56.000,73.119 56.000 C 72.241 56.000,72.205 56.018,72.108 56.500 C 72.041 56.836,71.909 57.000,71.704 57.000 C 71.537 57.000,71.310 57.090,71.200 57.200 C 71.090 57.310,71.000 57.537,71.000 57.704 C 71.000 57.909,70.836 58.041,70.500 58.108 C 70.066 58.195,70.000 58.281,70.000 58.756 C 70.000 59.160,69.869 59.414,69.500 59.724 C 68.676 60.418,68.784 63.364,69.624 63.097 C 70.200 62.914,70.471 62.451,70.731 61.206 C 71.006 59.884,72.043 58.416,73.083 57.877 C 73.358 57.734,73.697 57.487,73.837 57.327 C 73.996 57.145,74.553 56.966,75.337 56.845 C 76.670 56.639,76.900 56.500,77.061 55.809 C 77.158 55.396,77.120 55.361,76.457 55.262 C 74.303 54.939,74.434 54.926,74.223 55.487 " stroke="none" fill="#a2663f" fill-rule="evenodd"></path><path id="path4" d="M111.333 41.833 C 110.514 42.652,111.125 44.067,112.253 43.965 L 112.917 43.904 112.417 43.763 C 111.193 43.415,111.076 42.341,112.208 41.838 L 112.917 41.524 112.292 41.512 C 111.877 41.504,111.554 41.612,111.333 41.833 M247.917 41.620 C 246.976 41.849,247.000 41.669,247.000 48.609 C 247.000 55.778,246.982 55.673,248.208 55.662 C 248.698 55.657,248.718 55.638,248.417 55.468 C 247.845 55.143,247.838 55.067,247.836 48.590 L 247.833 42.263 248.292 41.887 C 248.743 41.518,248.640 41.444,247.917 41.620 M253.250 41.620 C 252.310 41.849,252.333 41.669,252.333 48.609 C 252.333 55.778,252.315 55.673,253.542 55.662 C 254.031 55.657,254.051 55.638,253.750 55.468 C 253.178 55.143,253.172 55.067,253.169 48.590 L 253.167 42.263 253.625 41.887 C 254.077 41.518,253.973 41.444,253.250 41.620 M270.250 42.623 C 269.519 42.730,269.333 42.958,269.333 43.746 C 269.333 44.948,269.059 45.469,268.306 45.694 C 266.668 46.185,266.815 48.206,268.500 48.363 L 269.083 48.417 269.181 51.167 C 269.246 53.024,269.349 54.025,269.498 54.250 C 269.976 54.972,270.918 55.618,271.625 55.710 C 272.465 55.819,272.584 55.584,271.767 55.431 C 271.315 55.346,270.143 54.368,269.807 53.795 C 269.792 53.770,269.736 52.553,269.682 51.089 C 269.572 48.120,269.727 48.483,268.284 47.817 C 267.499 47.455,267.692 46.525,268.646 46.067 C 269.536 45.640,269.657 45.438,269.802 44.136 C 269.916 43.123,269.923 43.111,270.557 42.931 C 271.043 42.794,271.322 42.403,270.847 42.525 C 270.794 42.539,270.525 42.583,270.250 42.623 M114.500 43.955 C 115.347 44.111,115.333 44.012,115.333 49.833 C 115.333 55.803,115.289 55.550,116.360 55.714 C 117.196 55.842,117.328 55.635,116.550 55.417 L 115.917 55.239 115.876 49.828 C 115.830 43.774,115.836 43.803,114.607 43.856 C 114.150 43.876,114.137 43.889,114.500 43.955 M124.917 45.845 C 124.404 45.930,123.977 46.115,123.807 46.325 C 123.654 46.513,123.451 46.667,123.354 46.667 C 122.470 46.667,120.970 49.278,120.978 50.802 C 120.986 52.172,122.309 54.665,123.029 54.666 C 123.091 54.667,123.380 54.868,123.672 55.114 C 124.221 55.575,125.941 55.958,126.219 55.681 C 126.293 55.607,126.019 55.508,125.610 55.462 C 122.221 55.080,120.473 50.418,122.735 47.792 C 123.110 47.357,123.496 47.000,123.594 47.000 C 123.691 47.000,123.933 46.849,124.131 46.664 C 124.585 46.242,125.211 46.000,125.854 46.000 C 126.144 46.000,126.310 45.930,126.250 45.833 C 126.135 45.648,126.095 45.648,124.917 45.845 M137.661 45.820 C 136.931 45.963,136.667 46.121,136.667 46.411 C 136.667 46.585,136.818 46.563,137.325 46.318 C 137.688 46.143,138.100 46.000,138.242 46.000 C 138.384 46.000,138.500 45.925,138.500 45.833 C 138.500 45.742,138.444 45.675,138.375 45.686 C 138.306 45.696,137.985 45.757,137.661 45.820 M150.083 45.859 C 149.382 46.243,149.333 46.461,149.333 49.251 C 149.333 53.079,149.473 53.717,150.529 54.710 C 150.993 55.146,151.532 55.536,151.728 55.576 C 152.531 55.740,153.167 55.767,153.167 55.638 C 153.167 55.562,152.997 55.500,152.789 55.500 C 152.441 55.500,151.312 54.849,150.917 54.421 C 149.934 53.357,149.920 53.298,149.862 49.757 C 149.802 46.087,149.825 46.000,150.865 46.000 C 151.123 46.000,151.333 45.925,151.333 45.833 C 151.333 45.612,150.504 45.629,150.083 45.859 M165.389 45.822 C 165.008 45.884,164.588 46.024,164.457 46.133 C 164.326 46.242,164.170 46.281,164.110 46.221 C 164.049 46.160,164.000 46.224,164.000 46.361 C 164.000 46.795,164.198 46.834,164.675 46.494 C 164.930 46.312,165.370 46.118,165.653 46.061 C 165.935 46.005,166.167 45.893,166.167 45.813 C 166.167 45.732,166.148 45.676,166.125 45.688 C 166.102 45.699,165.771 45.759,165.389 45.822 M176.376 45.840 C 175.318 46.070,175.138 46.424,175.687 47.195 C 175.881 47.468,176.141 48.027,176.265 48.437 C 176.388 48.848,176.641 49.377,176.827 49.614 C 177.013 49.850,177.246 50.352,177.345 50.730 C 177.444 51.108,177.693 51.679,177.899 52.000 C 178.105 52.321,178.369 52.930,178.486 53.353 C 178.602 53.776,178.838 54.336,179.010 54.598 C 179.315 55.063,179.315 55.082,179.010 55.412 C 178.838 55.598,178.587 56.127,178.452 56.588 C 178.317 57.049,178.010 57.716,177.770 58.070 C 176.982 59.231,177.301 59.987,178.583 59.992 C 179.074 59.994,179.184 59.952,179.000 59.833 C 178.862 59.744,178.579 59.671,178.370 59.669 C 177.888 59.666,177.716 59.241,178.046 58.869 C 178.185 58.712,178.421 58.218,178.571 57.771 C 178.721 57.325,179.029 56.643,179.255 56.257 C 179.799 55.328,179.774 54.642,179.150 53.333 C 178.040 51.004,177.688 50.228,177.485 49.667 C 177.370 49.346,177.154 48.896,177.006 48.667 C 176.095 47.255,176.055 46.249,176.899 45.945 C 177.285 45.806,176.893 45.727,176.376 45.840 M183.750 45.790 C 183.078 45.888,182.927 46.038,182.663 46.873 C 182.539 47.264,182.311 47.771,182.156 48.000 C 182.000 48.229,181.776 48.856,181.656 49.394 C 181.536 49.931,181.340 50.470,181.219 50.590 C 180.970 50.840,180.930 51.270,181.144 51.403 C 181.354 51.532,181.770 50.996,181.907 50.419 C 181.973 50.146,182.195 49.546,182.402 49.086 C 182.609 48.626,182.876 47.891,182.996 47.452 C 183.209 46.670,183.799 46.000,184.272 46.000 C 184.398 46.000,184.500 45.925,184.500 45.833 C 184.500 45.742,184.444 45.678,184.375 45.692 C 184.306 45.705,184.025 45.750,183.750 45.790 M190.500 45.780 C 189.887 45.881,189.167 46.187,189.167 46.346 C 189.167 46.422,188.923 46.600,188.625 46.742 C 187.659 47.201,186.374 49.418,186.340 50.685 C 186.308 51.930,187.913 54.833,188.634 54.833 C 188.715 54.833,188.989 55.011,189.242 55.229 C 189.758 55.673,191.430 55.970,191.729 55.671 C 191.846 55.554,191.765 55.500,191.471 55.500 C 190.740 55.500,190.037 55.308,189.720 55.023 C 189.553 54.873,189.215 54.646,188.968 54.518 C 187.143 53.578,186.388 49.445,187.810 48.181 C 187.973 48.035,188.154 47.789,188.212 47.633 C 188.270 47.476,188.627 47.176,189.006 46.966 C 189.385 46.755,189.933 46.452,190.223 46.292 C 190.513 46.132,190.998 46.000,191.302 46.000 C 191.627 46.000,191.811 45.932,191.750 45.833 C 191.647 45.667,191.285 45.652,190.500 45.780 M205.108 45.829 C 204.201 46.004,204.172 46.106,204.169 49.130 C 204.166 52.282,204.012 52.898,203.182 53.080 C 202.412 53.249,202.560 53.453,203.374 53.345 C 204.513 53.192,204.720 52.584,204.801 49.138 L 204.866 46.360 205.350 46.160 C 205.616 46.050,205.833 45.894,205.833 45.813 C 205.833 45.733,205.815 45.675,205.792 45.686 C 205.769 45.696,205.461 45.761,205.108 45.829 M210.417 45.790 C 209.485 45.926,209.500 45.845,209.500 50.750 C 209.500 55.728,209.463 55.551,210.542 55.716 C 211.309 55.834,211.368 55.606,210.625 55.393 L 210.083 55.238 210.083 50.750 L 210.083 46.262 210.625 46.107 C 211.075 45.978,211.442 45.612,211.042 45.692 C 210.973 45.705,210.692 45.750,210.417 45.790 M213.625 45.871 C 212.789 46.045,212.431 46.667,213.167 46.667 C 213.350 46.667,213.500 46.601,213.500 46.520 C 213.500 46.440,213.725 46.281,214.000 46.167 C 214.275 46.053,214.500 45.894,214.500 45.813 C 214.500 45.733,214.481 45.676,214.458 45.686 C 214.435 45.697,214.060 45.780,213.625 45.871 M221.108 45.839 C 220.083 46.021,219.939 46.787,220.671 48.167 C 220.842 48.487,221.098 49.293,221.242 49.956 C 221.386 50.619,221.655 51.455,221.842 51.812 C 222.028 52.170,222.239 52.827,222.311 53.273 C 222.503 54.474,222.942 55.268,223.580 55.570 C 224.202 55.866,225.000 55.920,225.000 55.667 C 225.000 55.575,224.808 55.500,224.572 55.500 C 223.911 55.500,223.538 55.220,223.410 54.626 C 223.345 54.328,223.161 53.821,222.999 53.500 C 222.838 53.179,222.610 52.467,222.492 51.917 C 222.374 51.367,222.150 50.654,221.995 50.333 C 221.839 50.012,221.619 49.337,221.506 48.833 C 221.393 48.329,221.154 47.589,220.976 47.188 C 220.606 46.358,220.599 46.375,221.425 46.091 C 222.176 45.832,221.988 45.683,221.108 45.839 M227.142 45.855 C 226.873 45.953,226.624 46.225,226.506 46.550 C 226.400 46.843,226.170 47.383,225.996 47.750 C 225.821 48.117,225.575 48.979,225.448 49.667 C 225.308 50.426,225.142 50.900,225.025 50.875 C 224.819 50.830,224.769 51.305,224.934 51.736 C 225.121 52.222,225.285 52.008,225.655 50.792 C 225.858 50.127,226.160 49.246,226.327 48.833 C 226.494 48.421,226.685 47.757,226.750 47.357 C 226.888 46.511,227.328 46.000,227.917 46.000 C 228.146 46.000,228.333 45.925,228.333 45.833 C 228.333 45.628,227.732 45.638,227.142 45.855 M233.866 45.831 C 233.206 45.987,232.846 46.415,232.839 47.050 C 232.836 47.307,232.708 47.757,232.556 48.050 C 232.014 49.089,231.576 51.935,232.054 51.307 C 232.348 50.920,233.130 48.409,233.252 47.460 C 233.366 46.567,233.659 46.193,234.351 46.055 C 234.613 46.002,234.787 45.894,234.737 45.813 C 234.636 45.649,234.633 45.650,233.866 45.831 M239.348 45.827 C 238.944 45.893,238.494 46.090,238.348 46.265 C 238.203 46.440,237.892 46.682,237.659 46.802 C 236.286 47.508,236.314 48.914,237.708 49.257 C 238.248 49.389,238.312 49.171,237.824 48.866 C 237.308 48.544,237.427 47.371,238.011 47.012 C 238.246 46.868,238.696 46.582,239.011 46.376 C 239.326 46.170,239.846 46.000,240.167 45.998 C 240.605 45.996,240.688 45.955,240.500 45.833 C 240.362 45.744,240.213 45.680,240.167 45.690 C 240.121 45.700,239.753 45.762,239.348 45.827 M260.877 45.824 C 260.488 45.887,260.001 46.087,259.793 46.269 C 259.586 46.450,259.229 46.693,259.000 46.809 C 258.492 47.067,257.576 48.263,257.452 48.833 C 257.402 49.063,257.250 49.594,257.114 50.014 C 256.886 50.715,256.892 50.853,257.177 51.681 C 257.349 52.177,257.492 52.716,257.495 52.879 C 257.500 53.174,258.840 54.603,259.738 55.271 C 260.235 55.641,261.971 55.929,262.217 55.683 C 262.291 55.609,261.968 55.503,261.499 55.448 C 260.937 55.381,260.476 55.203,260.144 54.923 C 259.868 54.691,259.581 54.500,259.508 54.500 C 259.434 54.500,259.033 54.086,258.617 53.580 C 257.439 52.150,257.335 49.296,258.418 48.165 C 258.646 47.927,258.835 47.661,258.837 47.574 C 258.843 47.282,260.849 46.133,261.507 46.045 C 261.866 45.996,262.119 45.892,262.070 45.812 C 261.972 45.653,261.918 45.654,260.877 45.824 M133.503 45.957 C 132.837 46.218,132.833 46.261,132.833 52.893 L 132.833 59.309 133.272 59.655 C 133.712 60.000,134.167 60.112,134.167 59.873 C 134.167 59.804,134.017 59.653,133.833 59.539 C 133.289 59.199,133.316 46.801,133.862 46.219 C 134.224 45.834,134.081 45.730,133.503 45.957 M155.704 46.093 C 155.347 46.343,155.333 46.451,155.333 49.061 C 155.333 52.070,155.085 53.063,154.293 53.215 C 154.012 53.270,154.051 53.294,154.446 53.311 C 154.869 53.329,155.079 53.208,155.488 52.712 L 156.000 52.091 156.000 49.280 C 156.000 46.570,156.013 46.459,156.375 46.157 C 156.874 45.741,156.286 45.685,155.704 46.093 M160.870 46.093 L 160.500 46.352 160.500 52.917 L 160.500 59.481 160.870 59.741 C 161.074 59.883,161.430 59.998,161.662 59.995 L 162.083 59.989 161.625 59.647 L 161.167 59.306 161.167 52.917 L 161.167 46.528 161.625 46.186 L 162.083 45.844 161.662 45.839 C 161.430 45.836,161.074 45.950,160.870 46.093 M198.422 46.193 L 197.965 46.552 198.044 49.651 C 198.149 53.782,199.006 55.425,201.208 55.721 C 202.140 55.846,202.285 55.591,201.379 55.421 C 200.630 55.280,199.527 54.347,199.129 53.516 C 198.632 52.479,198.696 46.469,199.208 46.112 C 199.581 45.853,199.581 45.851,199.231 45.842 C 199.037 45.837,198.673 45.995,198.422 46.193 M126.667 48.190 C 126.667 48.269,126.737 48.333,126.823 48.333 C 128.485 48.333,128.636 52.564,126.993 53.086 C 126.813 53.143,126.667 53.257,126.667 53.339 C 126.667 53.422,126.760 53.461,126.875 53.425 C 126.990 53.390,127.289 53.316,127.540 53.261 C 128.647 53.019,129.147 50.460,128.358 49.073 C 127.997 48.437,126.667 47.743,126.667 48.190 M138.500 48.152 C 138.500 48.229,138.711 48.380,138.968 48.487 C 140.503 49.123,140.491 52.054,138.949 53.015 L 138.417 53.347 139.074 53.298 C 141.114 53.149,141.369 48.674,139.363 48.236 C 139.118 48.183,138.823 48.110,138.708 48.075 C 138.594 48.039,138.500 48.074,138.500 48.152 M166.715 48.527 C 168.204 49.744,168.241 51.464,166.807 52.826 C 166.409 53.204,166.196 53.480,166.333 53.438 C 166.471 53.396,166.795 53.315,167.054 53.258 C 168.840 52.865,168.659 48.729,166.833 48.219 L 166.083 48.010 166.715 48.527 M192.000 48.173 C 192.000 48.249,192.150 48.358,192.333 48.417 C 193.920 48.920,193.946 52.571,192.367 53.073 C 191.797 53.254,191.935 53.441,192.582 53.365 C 194.492 53.142,194.908 50.369,193.321 48.445 C 193.158 48.247,192.000 48.009,192.000 48.173 M241.375 48.347 C 242.437 48.965,241.498 49.998,239.863 50.008 C 236.520 50.027,234.998 52.765,237.176 54.842 C 238.021 55.648,239.329 56.071,239.732 55.668 C 239.845 55.555,239.749 55.500,239.442 55.500 C 237.982 55.500,236.377 53.469,236.906 52.292 C 237.520 50.923,238.357 50.420,240.389 50.197 C 242.246 49.993,242.500 49.857,242.500 49.059 C 242.500 48.480,242.089 48.159,241.364 48.172 C 241.108 48.176,241.109 48.191,241.375 48.347 M262.971 48.394 L 263.359 48.609 262.971 48.892 C 262.584 49.174,262.584 49.175,263.167 49.068 C 264.372 48.848,264.315 48.158,263.093 48.173 C 262.587 48.178,262.586 48.180,262.971 48.394 M228.200 49.533 C 227.925 49.808,227.949 50.122,228.258 50.295 C 228.407 50.378,228.619 50.931,228.758 51.595 C 228.890 52.230,229.141 53.050,229.315 53.417 C 229.488 53.783,229.732 54.421,229.857 54.833 C 230.071 55.542,230.122 55.588,230.792 55.678 C 231.609 55.787,231.728 55.612,231.007 55.361 C 230.517 55.190,230.000 54.323,230.000 53.672 C 230.000 53.273,228.744 49.714,228.513 49.458 C 228.451 49.390,228.310 49.423,228.200 49.533 M264.389 52.345 C 264.191 52.418,263.966 52.582,263.889 52.708 C 263.813 52.835,263.487 53.019,263.167 53.119 L 262.583 53.299 263.266 53.316 C 263.752 53.328,264.035 53.237,264.250 53.000 C 264.416 52.817,264.690 52.667,264.859 52.667 C 265.028 52.667,265.167 52.600,265.167 52.518 C 265.167 52.283,264.784 52.198,264.389 52.345 M241.280 52.442 C 241.221 52.502,241.301 52.645,241.459 52.760 C 241.715 52.948,241.684 52.988,241.165 53.137 L 240.583 53.303 241.250 53.313 C 242.204 53.327,242.658 52.963,242.139 52.600 C 241.735 52.316,241.457 52.265,241.280 52.442 M242.000 55.028 C 242.000 55.226,242.050 55.339,242.111 55.277 C 242.173 55.216,242.342 55.268,242.486 55.393 C 242.845 55.702,243.415 55.823,243.690 55.649 C 243.857 55.543,243.820 55.504,243.549 55.503 C 243.347 55.501,242.994 55.313,242.765 55.083 C 242.253 54.571,242.000 54.553,242.000 55.028 M155.431 55.060 C 155.589 55.473,156.664 55.876,157.015 55.654 C 157.196 55.539,157.169 55.505,156.897 55.503 C 156.704 55.501,156.354 55.350,156.121 55.167 C 155.632 54.782,155.305 54.731,155.431 55.060 M164.074 55.014 C 163.929 55.249,164.422 55.667,164.844 55.667 C 164.999 55.667,165.359 55.714,165.646 55.771 C 165.950 55.832,166.167 55.806,166.167 55.709 C 166.167 55.618,165.861 55.503,165.487 55.453 C 165.113 55.403,164.671 55.238,164.504 55.087 C 164.275 54.879,164.169 54.862,164.074 55.014 M204.534 54.961 C 203.881 55.178,204.688 55.770,205.458 55.639 C 205.739 55.591,205.712 55.536,205.259 55.239 C 204.971 55.049,204.644 54.924,204.534 54.961 M136.735 55.317 C 136.897 55.496,137.312 55.661,137.690 55.697 C 138.615 55.786,138.666 55.563,137.752 55.426 C 137.343 55.364,136.964 55.243,136.911 55.157 C 136.857 55.071,136.731 55.000,136.631 55.000 C 136.531 55.000,136.577 55.143,136.735 55.317 M77.122 55.601 C 77.055 55.668,77.000 55.851,77.000 56.007 C 77.000 56.464,76.646 56.641,75.327 56.846 C 74.552 56.966,73.995 57.146,73.837 57.327 C 73.697 57.487,73.358 57.734,73.083 57.877 C 72.037 58.420,71.006 59.884,70.737 61.207 C 70.500 62.375,70.136 62.952,69.470 63.220 C 69.321 63.279,69.307 63.352,69.425 63.446 C 69.649 63.621,70.103 64.596,70.503 65.757 C 71.609 68.975,75.306 70.733,78.844 69.725 C 84.512 68.109,85.504 60.573,80.483 57.279 C 79.969 56.942,79.467 56.667,79.366 56.667 C 78.514 56.667,77.509 56.276,77.382 55.895 C 77.305 55.666,77.188 55.534,77.122 55.601 " stroke="none" fill="#f2c470" fill-rule="evenodd"></path></g></svg>