<svg id="svg" version="1.1" xmlns="http://www.w3.org/2000/svg" xmlns:xlink="http://www.w3.org/1999/xlink" width="400" height="110.0817438692098" viewBox="0, 0, 400,110.0817438692098"><g id="svgg"><path id="path0" d="M30.484 40.204 L 29.750 41.075 29.704 53.517 L 29.659 65.960 30.330 66.810 L 31.002 67.660 46.543 67.728 C 61.509 67.794,63.833 67.855,63.833 68.183 C 63.833 68.266,63.908 68.333,64.000 68.333 C 64.092 68.333,64.167 67.975,64.167 67.537 C 64.167 66.005,64.180 66.000,68.074 66.000 L 71.462 66.000 71.731 65.589 C 71.913 65.312,72.000 64.807,72.000 64.031 C 72.000 63.091,72.205 61.971,72.428 61.694 C 72.452 61.664,73.697 62.851,75.195 64.332 C 76.692 65.814,78.126 67.178,78.382 67.363 L 78.848 67.700 78.748 67.301 C 78.679 67.026,78.767 66.751,79.032 66.414 L 79.417 65.925 79.471 54.171 C 79.525 42.354,79.467 40.870,78.938 40.543 C 78.826 40.474,78.563 40.173,78.355 39.875 L 77.977 39.333 54.598 39.333 L 31.219 39.333 30.484 40.204 M125.133 44.867 C 125.243 44.977,125.333 45.374,125.333 45.750 C 125.333 46.126,125.243 46.523,125.133 46.633 C 124.917 46.850,125.090 46.906,125.750 46.836 C 126.993 46.704,126.774 44.667,125.517 44.667 C 125.063 44.667,124.978 44.711,125.133 44.867 M169.809 44.888 C 170.463 45.676,170.096 46.722,169.110 46.881 C 167.610 47.122,167.309 49.000,168.770 49.000 C 169.308 49.000,169.545 48.765,169.142 48.631 C 168.724 48.491,169.218 47.267,169.756 47.111 C 170.897 46.779,171.080 46.612,171.135 45.854 C 171.195 45.028,170.892 44.681,170.105 44.672 C 169.726 44.668,169.664 44.713,169.809 44.888 M57.083 46.413 C 57.633 46.627,58.323 46.892,58.615 47.001 C 59.305 47.258,60.951 48.986,61.095 49.604 C 61.156 49.867,61.402 50.421,61.641 50.833 C 62.368 52.084,62.267 53.976,61.376 55.833 C 60.762 57.113,59.635 58.667,59.321 58.667 C 59.254 58.667,58.759 58.915,58.222 59.219 C 54.840 61.130,50.457 59.683,48.725 56.083 C 47.922 54.414,47.767 51.540,48.429 50.583 C 48.619 50.308,48.876 49.821,48.999 49.500 C 49.327 48.642,51.052 47.044,51.894 46.817 C 52.273 46.715,52.808 46.514,53.083 46.369 C 54.247 45.759,55.442 45.772,57.083 46.413 M200.875 45.944 C 200.751 45.994,200.667 46.336,200.667 46.788 C 200.667 47.539,200.690 47.571,202.750 49.613 C 205.451 52.291,205.461 52.353,203.484 54.273 C 202.741 54.994,202.010 55.725,201.859 55.898 C 201.707 56.071,201.377 56.402,201.125 56.634 C 200.543 57.169,200.462 58.379,200.989 58.661 C 201.800 59.095,202.233 58.893,203.687 57.401 C 204.455 56.613,205.220 55.844,205.388 55.692 C 209.060 52.366,209.064 52.574,205.243 48.755 C 202.178 45.691,201.917 45.523,200.875 45.944 M121.276 47.138 C 121.031 47.408,121.000 48.055,120.997 52.846 C 120.996 55.894,120.927 58.357,120.840 58.496 C 120.620 58.843,120.959 59.007,121.483 58.808 C 122.159 58.551,122.161 58.529,122.164 52.846 C 122.166 48.055,122.198 47.408,122.442 47.138 C 122.705 46.848,122.690 46.833,122.135 46.833 C 121.782 46.833,121.443 46.953,121.276 47.138 M128.334 49.128 C 128.337 49.618,129.156 50.238,129.437 49.962 C 129.598 49.804,129.697 49.652,129.657 49.624 C 129.347 49.410,128.334 49.030,128.334 49.128 M131.680 49.358 C 131.785 49.554,131.834 50.042,131.789 50.441 C 131.700 51.239,131.846 51.340,132.463 50.907 C 133.030 50.510,132.970 49.653,132.349 49.286 C 131.668 48.884,131.439 48.908,131.680 49.358 M138.822 49.120 C 139.102 49.231,139.546 49.612,140.722 50.750 L 141.583 51.583 141.635 54.868 C 141.668 57.022,141.623 58.270,141.504 58.493 C 141.292 58.888,141.448 58.926,142.090 58.634 C 142.471 58.460,142.513 58.367,142.411 57.925 C 142.347 57.645,142.245 55.992,142.185 54.250 C 142.072 50.979,141.926 50.271,141.323 50.080 C 141.161 50.029,140.750 49.765,140.408 49.493 C 139.965 49.141,139.615 49.004,139.185 49.013 C 138.854 49.020,138.691 49.069,138.822 49.120 M146.095 49.583 C 146.608 50.257,146.682 50.277,147.065 49.853 C 147.455 49.423,147.041 49.000,146.230 49.000 L 145.650 49.000 146.095 49.583 M151.234 49.792 C 151.742 50.236,152.232 50.839,152.352 51.167 C 152.613 51.883,152.566 58.298,152.297 58.625 C 152.065 58.907,153.185 58.915,153.467 58.633 C 153.608 58.492,153.667 57.502,153.667 55.243 L 153.667 52.053 153.166 51.068 C 152.604 49.962,151.491 49.000,150.773 49.000 C 150.357 49.000,150.386 49.050,151.234 49.792 M160.000 49.074 C 160.000 49.115,160.430 49.498,160.955 49.926 C 161.930 50.720,162.141 51.337,161.644 51.942 C 161.403 52.236,161.848 52.322,162.336 52.076 C 162.917 51.784,162.849 50.477,162.230 50.036 C 162.008 49.879,161.622 49.581,161.372 49.375 C 160.986 49.058,160.000 48.841,160.000 49.074 M169.891 49.305 C 170.268 49.722,170.237 50.528,169.827 50.969 L 169.487 51.333 170.051 51.333 C 170.996 51.333,171.628 49.861,170.967 49.200 C 170.601 48.834,169.557 48.936,169.891 49.305 M177.779 49.396 C 178.038 49.614,178.550 49.933,178.917 50.105 C 179.506 50.382,179.622 50.537,179.917 51.439 C 180.100 52.001,180.333 52.563,180.435 52.689 C 180.727 53.049,180.857 54.021,180.647 54.274 C 180.503 54.447,180.518 54.500,180.709 54.500 C 181.435 54.500,181.530 52.480,180.867 51.185 C 180.475 50.421,178.474 49.000,177.790 49.000 L 177.308 49.000 177.779 49.396 M185.149 49.292 C 185.587 50.089,185.787 50.246,186.065 50.015 C 186.447 49.699,186.401 49.544,185.842 49.254 C 185.177 48.911,184.946 48.923,185.149 49.292 M188.460 49.809 C 188.503 50.258,188.452 50.777,188.346 50.976 C 188.105 51.426,188.705 51.488,189.296 51.074 C 190.060 50.539,189.632 49.000,188.720 49.000 C 188.417 49.000,188.390 49.082,188.460 49.809 M129.750 51.326 C 128.689 51.765,128.590 52.098,128.500 55.555 C 128.405 59.188,128.375 58.988,128.968 58.656 L 129.417 58.405 129.502 55.661 C 129.594 52.709,129.813 51.801,130.485 51.588 C 130.676 51.527,130.833 51.408,130.833 51.322 C 130.833 51.134,130.209 51.136,129.750 51.326 M136.013 51.598 C 135.731 51.835,135.500 52.098,135.500 52.181 C 135.500 52.459,135.911 52.338,136.401 51.916 C 136.667 51.687,136.982 51.500,137.099 51.500 C 137.217 51.500,137.360 51.425,137.417 51.333 C 137.642 50.969,136.506 51.183,136.013 51.598 M147.276 51.471 C 147.124 51.639,147.000 51.852,147.000 51.946 C 147.000 52.039,146.850 52.251,146.667 52.417 C 146.359 52.695,146.333 52.930,146.333 55.514 C 146.333 57.835,146.289 58.354,146.071 58.572 C 145.686 58.957,146.241 59.137,146.818 58.814 L 147.250 58.571 147.333 55.577 C 147.420 52.478,147.561 51.871,148.260 51.603 C 148.672 51.444,148.523 51.167,148.026 51.167 C 147.765 51.167,147.428 51.304,147.276 51.471 M174.359 51.449 L 173.801 51.724 174.192 52.025 C 174.427 52.206,174.850 52.322,175.250 52.316 L 175.917 52.306 175.333 52.049 C 174.766 51.798,174.760 51.787,175.125 51.620 C 175.331 51.526,175.500 51.386,175.500 51.308 C 175.500 51.084,174.966 51.150,174.359 51.449 M186.639 51.303 C 185.516 51.761,185.216 52.882,185.125 56.959 L 185.083 58.834 185.521 58.834 C 186.225 58.833,186.294 58.568,186.362 55.583 C 186.431 52.582,186.625 51.808,187.372 51.571 C 187.537 51.519,187.628 51.406,187.576 51.321 C 187.467 51.145,187.047 51.137,186.639 51.303 M157.342 51.573 C 156.962 52.031,158.343 52.813,160.458 53.337 C 160.848 53.434,161.167 53.579,161.167 53.660 C 161.167 53.740,161.436 54.056,161.765 54.361 C 162.502 55.045,162.547 56.833,161.840 57.331 C 160.473 58.292,159.969 58.833,160.439 58.833 C 161.617 58.833,163.335 56.943,163.334 55.647 C 163.334 55.408,163.200 55.033,163.037 54.814 C 162.874 54.596,162.636 54.210,162.508 53.957 C 162.344 53.632,162.076 53.448,161.596 53.328 C 160.917 53.159,158.779 52.237,158.364 51.934 C 158.192 51.809,158.229 51.727,158.530 51.559 C 158.896 51.357,158.880 51.345,158.229 51.339 C 157.827 51.336,157.458 51.433,157.342 51.573 M168.033 51.533 C 167.891 51.676,167.833 52.700,167.833 55.083 C 167.833 57.467,167.776 58.491,167.633 58.633 C 167.417 58.850,167.590 58.906,168.250 58.836 C 168.971 58.760,169.000 58.616,169.000 55.096 C 169.000 52.703,169.058 51.676,169.200 51.533 C 169.356 51.378,169.270 51.333,168.817 51.333 C 168.496 51.333,168.143 51.423,168.033 51.533 M174.059 54.666 C 173.589 54.855,173.441 55.113,173.706 55.281 C 173.823 55.356,174.128 55.698,174.384 56.042 C 174.811 56.614,174.916 56.666,175.633 56.654 C 176.064 56.646,176.304 56.599,176.167 56.548 C 175.799 56.412,174.673 55.283,174.669 55.046 C 174.668 54.934,174.910 54.772,175.208 54.686 L 175.750 54.530 175.083 54.526 C 174.717 54.523,174.256 54.586,174.059 54.666 M136.752 55.566 C 134.986 55.850,135.155 56.696,136.969 56.652 L 137.583 56.637 137.042 56.480 C 136.187 56.234,136.557 55.667,137.572 55.667 C 137.808 55.667,138.000 55.592,138.000 55.500 C 138.000 55.408,137.981 55.343,137.958 55.356 C 137.935 55.368,137.393 55.463,136.752 55.566 M157.292 55.624 C 156.551 55.795,157.238 56.667,158.114 56.667 C 158.683 56.667,158.693 56.657,158.391 56.375 C 158.219 56.215,157.967 55.965,157.831 55.820 C 157.695 55.675,157.452 55.586,157.292 55.624 M179.807 56.486 C 179.856 57.199,179.813 57.336,179.473 57.542 C 179.259 57.672,178.708 58.022,178.250 58.320 L 177.417 58.861 178.124 58.780 C 178.517 58.735,179.044 58.525,179.311 58.308 C 179.575 58.093,180.026 57.789,180.312 57.633 C 181.172 57.164,181.004 55.667,180.092 55.667 C 179.786 55.666,179.756 55.752,179.807 56.486 M138.526 58.020 C 138.310 58.101,137.944 58.318,137.711 58.501 L 137.288 58.833 137.743 58.833 C 138.203 58.833,139.167 58.364,139.167 58.141 C 139.167 57.918,138.920 57.871,138.526 58.020 " stroke="none" fill="#427cd6" fill-rule="evenodd"></path><path id="path1" d="M0.000 55.000 L 0.000 110.000 200.000 110.000 L 400.000 110.000 400.000 55.000 L 400.000 0.000 200.000 0.000 L 0.000 0.000 0.000 55.000 M78.355 39.875 C 78.563 40.173,78.826 40.474,78.938 40.543 C 79.467 40.870,79.525 42.354,79.471 54.167 L 79.417 65.917 79.024 66.439 C 78.487 67.155,78.628 67.491,80.104 69.009 L 81.328 70.268 76.943 74.634 C 74.532 77.035,72.515 79.000,72.462 79.000 C 72.232 79.000,72.000 77.854,72.000 76.717 C 72.000 75.937,71.906 75.303,71.746 74.992 L 71.491 74.500 68.134 74.500 C 63.849 74.500,64.167 74.740,64.167 71.499 C 64.167 68.324,64.079 68.067,62.947 67.914 C 62.472 67.850,55.090 67.766,46.543 67.728 L 31.002 67.660 30.330 66.810 L 29.659 65.960 29.704 53.517 L 29.750 41.075 30.484 40.204 L 31.219 39.333 54.598 39.333 L 77.977 39.333 78.355 39.875 M126.225 44.812 C 126.592 45.117,126.598 46.378,126.233 46.681 C 126.066 46.819,125.359 46.928,124.358 46.971 C 121.934 47.073,122.167 46.455,122.164 52.798 C 122.163 55.796,122.105 58.339,122.036 58.448 C 121.673 59.019,119.512 59.214,118.971 58.724 C 118.688 58.467,118.667 58.061,118.667 52.825 C 118.667 47.852,118.636 47.191,118.403 47.101 C 118.258 47.046,117.401 47.000,116.498 47.000 C 114.566 47.000,114.333 46.865,114.333 45.748 C 114.333 44.463,114.267 44.476,120.516 44.533 C 124.819 44.573,126.007 44.631,126.225 44.812 M170.831 44.868 C 171.115 45.043,171.170 45.221,171.131 45.828 C 171.081 46.616,170.909 46.776,169.756 47.111 C 168.625 47.439,168.799 48.728,170.000 48.923 C 170.918 49.072,171.079 49.224,171.135 49.992 C 171.198 50.850,170.836 51.333,170.130 51.333 C 168.994 51.333,169.000 51.315,169.000 55.069 C 169.000 59.020,169.077 58.846,167.281 58.962 C 165.553 59.073,165.601 59.179,165.500 55.034 C 165.426 51.997,165.384 51.603,165.125 51.476 C 164.965 51.398,164.702 51.269,164.542 51.190 C 163.914 50.882,164.143 49.303,164.864 48.963 C 165.414 48.705,165.490 48.590,165.587 47.879 C 165.646 47.441,165.737 46.933,165.788 46.750 C 165.918 46.290,167.581 44.709,168.041 44.608 C 168.665 44.471,170.458 44.638,170.831 44.868 M205.243 48.755 C 209.064 52.574,209.060 52.366,205.388 55.692 C 205.220 55.844,204.455 56.613,203.687 57.401 C 202.233 58.893,201.800 59.095,200.989 58.661 C 200.462 58.379,200.543 57.169,201.125 56.634 C 201.377 56.402,201.707 56.071,201.859 55.898 C 202.010 55.725,202.741 54.994,203.484 54.273 C 205.461 52.353,205.451 52.291,202.750 49.613 C 200.690 47.571,200.667 47.539,200.667 46.788 C 200.667 45.953,200.761 45.867,201.702 45.846 C 202.286 45.834,202.481 45.994,205.243 48.755 M128.764 49.176 C 129.263 49.483,129.356 49.493,129.701 49.275 C 130.932 48.494,132.833 49.005,132.833 50.116 C 132.833 50.749,132.201 51.251,131.167 51.438 C 129.753 51.694,129.500 52.367,129.500 55.865 L 129.500 58.338 128.958 58.668 C 128.271 59.087,126.907 59.118,126.471 58.724 C 125.949 58.252,126.009 49.463,126.537 49.093 C 127.056 48.729,128.105 48.768,128.764 49.176 M140.135 49.311 C 140.382 49.509,140.820 49.793,141.109 49.942 C 141.965 50.384,142.065 50.784,142.185 54.250 C 142.245 55.992,142.347 57.644,142.411 57.921 C 142.628 58.865,140.412 59.420,139.450 58.663 L 139.021 58.326 138.469 58.662 C 137.786 59.079,135.746 59.136,135.016 58.759 C 131.840 57.116,133.123 53.167,136.833 53.167 C 138.321 53.167,138.782 52.958,138.865 52.248 C 138.976 51.297,137.246 51.114,136.318 51.979 C 135.861 52.404,134.597 52.466,134.059 52.089 C 133.560 51.740,133.771 50.262,134.345 50.080 C 134.534 50.020,134.927 49.761,135.219 49.505 C 136.132 48.704,139.229 48.582,140.135 49.311 M147.050 49.201 C 147.407 49.338,147.619 49.326,147.952 49.149 C 149.671 48.233,152.197 49.163,153.166 51.068 L 153.667 52.053 153.667 55.256 C 153.667 58.987,153.747 58.815,151.952 58.951 C 150.179 59.085,150.167 59.059,150.167 55.390 C 150.167 52.075,150.086 51.729,149.272 51.576 C 147.662 51.274,147.333 51.964,147.333 55.641 L 147.333 58.492 146.915 58.766 C 146.421 59.090,144.691 59.033,144.264 58.678 C 143.913 58.387,143.861 49.488,144.208 49.203 C 144.667 48.826,146.077 48.825,147.050 49.201 M160.354 48.968 C 162.850 49.445,163.607 51.941,161.382 52.356 C 160.534 52.515,160.167 52.407,160.167 52.000 C 160.167 51.551,159.160 51.321,158.426 51.603 C 158.130 51.717,158.371 52.167,158.729 52.167 C 158.832 52.167,159.367 52.390,159.917 52.663 C 160.467 52.936,161.222 53.235,161.596 53.328 C 162.076 53.448,162.344 53.632,162.508 53.957 C 162.636 54.210,162.874 54.596,163.037 54.814 C 163.434 55.346,163.411 55.931,162.959 56.829 C 161.781 59.168,158.470 59.836,156.364 58.160 C 154.675 56.815,154.953 55.500,156.926 55.500 C 157.425 55.500,157.833 55.575,157.833 55.667 C 157.833 56.030,158.517 56.500,159.042 56.497 C 160.389 56.491,160.198 55.749,158.802 55.563 C 158.345 55.503,157.933 55.352,157.885 55.228 C 157.838 55.104,157.488 54.914,157.108 54.806 C 155.804 54.433,154.486 51.940,155.321 51.425 C 155.405 51.372,155.524 51.102,155.585 50.824 C 155.660 50.485,155.907 50.186,156.337 49.914 C 156.690 49.692,157.039 49.402,157.114 49.271 C 157.334 48.885,159.071 48.723,160.354 48.968 M179.379 49.772 C 180.784 50.737,181.145 51.342,181.281 52.960 C 181.421 54.630,181.347 54.667,177.893 54.667 C 174.305 54.667,174.154 54.739,175.329 55.897 C 176.143 56.699,177.193 56.707,178.329 55.920 C 179.025 55.438,180.074 55.411,180.617 55.861 C 181.015 56.191,180.886 57.293,180.417 57.579 C 180.188 57.719,179.803 57.965,179.562 58.125 C 176.757 59.992,173.432 59.114,171.836 56.083 C 169.425 51.507,175.051 46.799,179.379 49.772 M185.484 49.096 C 186.013 49.308,186.213 49.320,186.516 49.158 C 187.133 48.828,188.928 48.883,189.328 49.245 C 190.084 49.929,189.588 51.332,188.588 51.334 C 186.760 51.339,186.444 51.948,186.361 55.620 C 186.286 58.935,186.348 58.810,184.703 58.947 C 182.782 59.109,182.833 59.246,182.833 53.948 C 182.833 48.552,183.065 48.128,185.484 49.096 M175.902 51.435 C 175.818 51.455,175.533 51.519,175.268 51.578 C 174.412 51.768,175.054 52.031,176.345 52.019 C 177.574 52.008,178.246 51.761,177.482 51.602 C 176.903 51.480,176.077 51.393,175.902 51.435 M136.740 55.913 C 136.090 56.410,137.477 56.731,138.418 56.302 L 138.852 56.105 138.467 55.892 C 137.947 55.603,137.134 55.613,136.740 55.913 " stroke="none" fill="#fafbfb" fill-rule="evenodd"></path><path id="path2" d="M114.704 44.759 C 114.417 44.960,114.333 45.184,114.333 45.748 C 114.333 46.865,114.566 47.000,116.498 47.000 C 117.401 47.000,118.258 47.046,118.403 47.101 C 118.636 47.191,118.667 47.852,118.667 52.825 C 118.667 59.315,118.592 59.013,120.180 58.983 L 121.083 58.967 120.430 58.813 C 119.277 58.543,119.333 58.851,119.333 52.817 L 119.333 47.342 118.842 47.088 C 118.529 46.926,117.894 46.833,117.099 46.833 C 115.413 46.833,115.000 46.633,115.000 45.812 C 115.000 44.789,115.130 44.762,120.500 44.662 L 125.250 44.573 120.162 44.537 C 115.786 44.505,115.022 44.536,114.704 44.759 M168.041 44.618 C 167.587 44.705,165.920 46.283,165.788 46.750 C 165.737 46.933,165.646 47.441,165.587 47.879 C 165.490 48.590,165.414 48.705,164.864 48.963 C 164.143 49.303,163.914 50.882,164.542 51.190 C 164.702 51.269,164.965 51.398,165.125 51.476 C 165.384 51.603,165.426 51.997,165.500 55.034 C 165.598 59.034,165.588 59.008,166.979 58.983 C 167.907 58.967,167.910 58.965,167.280 58.817 C 166.167 58.555,166.167 58.553,166.167 54.932 L 166.167 51.673 165.531 51.349 C 164.189 50.664,164.109 49.730,165.333 49.046 C 166.208 48.558,166.327 48.408,166.331 47.795 C 166.338 46.507,167.684 44.956,168.982 44.740 C 169.313 44.684,169.658 44.614,169.750 44.583 C 169.991 44.501,168.487 44.532,168.041 44.618 M54.167 45.986 C 53.846 46.053,53.358 46.225,53.083 46.369 C 52.808 46.514,52.273 46.715,51.894 46.817 C 51.052 47.044,49.327 48.642,48.999 49.500 C 48.876 49.821,48.619 50.308,48.429 50.583 C 47.767 51.540,47.922 54.414,48.725 56.083 C 50.457 59.683,54.840 61.130,58.222 59.219 C 58.759 58.915,59.254 58.667,59.321 58.667 C 59.635 58.667,60.762 57.113,61.376 55.833 C 62.267 53.976,62.368 52.084,61.641 50.833 C 61.402 50.421,61.156 49.867,61.095 49.604 C 60.951 48.986,59.305 47.258,58.615 47.001 C 58.323 46.892,57.633 46.627,57.083 46.413 C 55.909 45.954,54.976 45.818,54.167 45.986 M122.609 46.958 C 122.566 47.027,122.993 47.062,123.557 47.037 C 125.283 46.958,125.487 46.885,124.052 46.858 C 123.301 46.845,122.651 46.890,122.609 46.958 M126.537 49.093 C 126.170 49.350,126.167 49.389,126.167 53.900 C 126.167 59.176,126.119 59.016,127.680 58.978 L 128.583 58.955 127.811 58.847 C 126.447 58.656,126.500 58.856,126.500 53.917 C 126.500 49.015,126.455 49.196,127.723 48.988 L 128.417 48.875 127.662 48.854 C 127.218 48.842,126.755 48.940,126.537 49.093 M130.402 48.990 C 129.750 49.146,129.471 49.318,129.581 49.496 C 129.678 49.653,130.315 49.531,130.614 49.298 C 130.723 49.213,131.023 49.080,131.281 49.003 C 131.914 48.813,131.188 48.802,130.402 48.990 M136.083 48.956 C 135.900 49.002,135.511 49.249,135.219 49.505 C 134.927 49.761,134.534 50.020,134.345 50.080 C 134.014 50.185,133.940 50.357,133.781 51.385 C 133.689 51.980,134.239 52.382,135.030 52.297 L 135.583 52.237 135.000 52.067 C 133.092 51.512,135.226 49.191,137.833 48.987 L 139.083 48.889 137.750 48.880 C 137.017 48.876,136.267 48.910,136.083 48.956 M144.833 48.955 C 143.995 49.110,144.000 49.077,144.000 53.917 C 144.000 59.040,143.946 58.831,145.292 58.936 C 146.012 58.991,146.037 58.982,145.563 58.832 C 144.656 58.546,144.658 58.557,144.706 53.833 L 144.750 49.456 145.331 49.145 C 145.911 48.833,145.776 48.782,144.833 48.955 M148.417 48.952 C 148.233 48.996,148.012 49.100,147.925 49.183 C 147.838 49.266,147.634 49.333,147.472 49.333 C 147.278 49.333,147.210 49.419,147.273 49.583 C 147.406 49.930,147.762 49.896,148.319 49.484 C 148.578 49.292,149.194 49.077,149.687 49.005 L 150.583 48.875 149.667 48.873 C 149.162 48.873,148.600 48.908,148.417 48.952 M157.667 48.955 C 157.438 48.998,157.189 49.140,157.114 49.271 C 157.039 49.402,156.690 49.692,156.337 49.914 C 155.907 50.186,155.660 50.485,155.585 50.824 C 155.524 51.102,155.405 51.372,155.321 51.425 C 154.486 51.940,155.804 54.433,157.108 54.806 C 157.488 54.914,157.838 55.104,157.885 55.228 C 157.933 55.352,158.345 55.503,158.802 55.563 C 160.144 55.741,160.377 56.280,159.210 56.507 C 158.590 56.627,158.589 56.629,159.114 56.648 C 159.828 56.673,160.500 56.400,160.500 56.083 C 160.500 55.828,158.595 54.852,157.617 54.607 C 156.220 54.256,155.250 51.688,156.119 50.641 C 156.715 49.923,158.258 49.080,159.156 48.983 L 160.083 48.882 159.083 48.881 C 158.533 48.880,157.896 48.913,157.667 48.955 M174.903 48.975 C 170.662 50.299,170.073 55.854,173.908 58.354 L 174.900 59.000 176.575 58.975 L 178.250 58.950 176.735 58.837 C 170.535 58.377,170.313 49.625,176.485 48.993 L 177.583 48.881 176.417 48.874 C 175.775 48.870,175.094 48.915,174.903 48.975 M183.173 49.198 C 182.849 49.546,182.833 49.765,182.833 53.948 C 182.833 59.077,182.814 59.013,184.375 58.984 L 185.250 58.968 184.417 58.775 L 183.583 58.581 183.539 54.048 C 183.490 48.991,183.405 49.371,184.657 48.991 C 185.004 48.886,184.938 48.859,184.298 48.848 C 183.693 48.837,183.435 48.917,183.173 49.198 M187.117 48.994 C 186.330 49.146,185.984 49.440,186.402 49.601 C 186.578 49.668,187.034 49.538,187.547 49.273 C 188.402 48.832,188.299 48.765,187.117 48.994 M131.083 51.333 C 130.873 51.424,130.842 51.477,131.000 51.477 C 131.137 51.477,131.400 51.412,131.583 51.333 C 131.793 51.243,131.824 51.190,131.667 51.190 C 131.529 51.190,131.267 51.255,131.083 51.333 M138.417 51.554 C 139.785 52.090,138.728 53.167,136.833 53.167 C 134.528 53.167,132.560 55.124,133.236 56.743 C 133.890 58.308,135.002 59.008,136.783 58.977 L 138.083 58.955 136.871 58.827 C 136.203 58.757,135.530 58.599,135.374 58.475 C 132.620 56.294,133.599 53.703,137.305 53.367 C 139.179 53.198,139.500 53.036,139.500 52.263 C 139.500 51.574,139.236 51.330,138.508 51.346 L 137.917 51.359 138.417 51.554 M149.133 51.529 C 150.106 51.747,150.167 51.974,150.167 55.390 C 150.167 58.902,150.210 59.009,151.634 58.982 L 152.583 58.964 151.833 58.799 C 150.638 58.535,150.667 58.621,150.666 55.355 C 150.665 51.718,150.521 51.322,149.211 51.351 L 148.417 51.369 149.133 51.529 M159.083 51.442 C 159.267 51.481,159.585 51.549,159.792 51.593 C 160.019 51.641,160.167 51.796,160.167 51.985 C 160.167 52.386,160.495 52.507,161.252 52.384 L 161.856 52.286 160.925 51.810 C 160.345 51.513,159.760 51.341,159.372 51.353 C 159.030 51.363,158.900 51.404,159.083 51.442 M176.583 51.446 C 178.203 51.648,178.166 51.983,176.519 52.021 C 175.868 52.035,175.554 52.098,175.693 52.186 C 176.055 52.416,177.295 52.354,177.964 52.072 C 178.840 51.704,178.331 51.323,177.010 51.358 C 176.500 51.372,176.308 51.411,176.583 51.446 M176.875 54.624 C 177.585 54.655,178.748 54.655,179.458 54.624 C 180.169 54.593,179.588 54.567,178.167 54.567 C 176.746 54.567,176.165 54.593,176.875 54.624 M138.240 55.755 C 138.418 55.890,138.637 56.000,138.726 56.000 C 139.005 56.000,138.719 56.187,138.054 56.439 L 137.417 56.682 138.233 56.591 C 139.637 56.434,139.810 55.491,138.433 55.505 C 137.943 55.510,137.933 55.523,138.240 55.755 M155.591 55.875 C 154.992 56.400,155.233 57.242,156.211 58.040 C 157.302 58.929,157.528 59.002,159.114 58.975 L 160.583 58.951 159.167 58.835 C 156.259 58.598,154.766 56.457,157.000 55.726 L 157.583 55.535 156.801 55.517 C 156.211 55.504,155.914 55.592,155.591 55.875 M178.323 55.920 C 177.998 56.151,177.399 56.411,176.991 56.499 C 176.307 56.646,176.332 56.652,177.325 56.578 C 178.161 56.516,178.495 56.409,178.825 56.099 C 179.059 55.879,179.400 55.663,179.583 55.619 C 179.815 55.563,179.764 55.533,179.415 55.519 C 179.120 55.508,178.669 55.673,178.323 55.920 M139.167 58.324 C 139.167 58.678,139.935 59.000,140.745 58.985 L 141.583 58.970 140.832 58.763 C 140.419 58.649,139.918 58.468,139.718 58.361 C 139.278 58.126,139.167 58.118,139.167 58.324 M79.906 71.542 L 79.417 72.083 79.958 71.594 C 80.256 71.325,80.500 71.081,80.500 71.052 C 80.500 70.923,80.362 71.037,79.906 71.542 M78.242 73.208 L 77.583 73.917 78.292 73.258 C 78.950 72.645,79.077 72.500,78.950 72.500 C 78.923 72.500,78.605 72.819,78.242 73.208 M76.742 74.708 L 76.083 75.417 76.792 74.758 C 77.450 74.145,77.577 74.000,77.450 74.000 C 77.423 74.000,77.105 74.319,76.742 74.708 M65.750 74.448 C 68.600 74.568,71.629 74.573,71.558 74.458 C 71.515 74.390,69.929 74.348,68.032 74.366 C 66.135 74.385,65.108 74.422,65.750 74.448 M75.242 76.208 L 74.583 76.917 75.292 76.258 C 75.950 75.645,76.077 75.500,75.950 75.500 C 75.923 75.500,75.605 75.819,75.242 76.208 M73.573 77.875 L 73.083 78.417 73.625 77.927 C 73.923 77.658,74.167 77.414,74.167 77.385 C 74.167 77.257,74.029 77.370,73.573 77.875 " stroke="none" fill="#f1c668" fill-rule="evenodd"></path><path id="path3" d="M185.003 49.282 C 184.995 49.850,185.800 50.431,186.115 50.085 C 186.281 49.902,186.308 49.846,186.175 49.960 C 185.824 50.261,185.737 50.225,185.353 49.625 C 185.162 49.327,185.004 49.173,185.003 49.282 M160.537 49.761 C 160.786 50.020,161.029 50.193,161.076 50.146 C 161.124 50.099,160.920 49.886,160.623 49.675 L 160.083 49.290 160.537 49.761 M169.992 50.046 C 170.073 50.733,170.076 50.736,170.133 50.187 C 170.165 49.878,170.127 49.561,170.050 49.483 C 169.972 49.406,169.946 49.659,169.992 50.046 M131.709 50.250 C 131.711 50.617,131.745 50.747,131.785 50.540 C 131.824 50.332,131.823 50.032,131.781 49.873 C 131.739 49.714,131.707 49.883,131.709 50.250 M158.302 51.189 C 158.163 51.278,158.310 51.329,158.708 51.331 C 159.052 51.332,159.333 51.305,159.333 51.269 C 159.333 51.125,158.505 51.061,158.302 51.189 M168.627 51.285 C 168.834 51.324,169.134 51.323,169.294 51.281 C 169.453 51.239,169.283 51.207,168.917 51.209 C 168.550 51.211,168.420 51.245,168.627 51.285 M152.343 54.942 C 152.329 56.938,152.353 58.536,152.394 58.494 C 152.512 58.374,152.586 51.530,152.470 51.415 C 152.414 51.358,152.357 52.946,152.343 54.942 M141.570 55.083 C 141.570 56.917,141.594 57.689,141.624 56.801 C 141.654 55.912,141.654 54.412,141.624 53.467 C 141.595 52.523,141.570 53.250,141.570 55.083 M185.107 53.602 C 185.048 54.030,185.013 55.326,185.028 56.482 L 185.056 58.583 185.169 55.750 C 185.288 52.738,185.277 52.359,185.107 53.602 M138.566 57.862 C 138.487 57.990,138.534 58.023,138.702 57.958 C 138.844 57.904,139.048 57.947,139.156 58.055 C 139.307 58.204,139.327 58.182,139.242 57.958 C 139.115 57.625,138.745 57.572,138.566 57.862 M72.193 62.311 C 72.087 62.665,72.000 63.456,72.000 64.067 C 72.000 64.809,71.911 65.315,71.731 65.589 L 71.462 66.000 68.068 66.000 L 64.674 66.000 64.403 66.414 C 64.056 66.944,64.033 73.457,64.376 74.007 C 64.568 74.314,64.785 74.333,68.021 74.333 L 71.462 74.333 71.731 74.744 C 71.920 75.033,72.000 75.538,72.000 76.441 C 72.000 77.705,72.270 78.882,72.539 78.793 C 72.681 78.745,80.942 70.561,81.091 70.321 C 81.137 70.247,80.685 69.694,80.087 69.093 C 79.489 68.492,79.000 67.942,79.000 67.870 C 79.000 67.798,78.794 67.615,78.542 67.463 C 78.290 67.312,76.827 65.946,75.292 64.427 C 72.078 61.249,72.438 61.494,72.193 62.311 " stroke="none" fill="#44bc64" fill-rule="evenodd"></path><path id="path4" d="M115.458 44.929 C 115.082 45.133,115.000 45.291,115.000 45.812 C 115.000 46.633,115.412 46.833,117.099 46.833 C 117.894 46.833,118.529 46.926,118.842 47.088 L 119.333 47.342 119.333 52.817 C 119.333 58.679,119.312 58.529,120.196 58.751 C 120.961 58.943,121.000 58.647,121.000 52.711 C 121.000 46.279,120.796 46.833,123.167 46.833 C 124.319 46.833,125.003 46.764,125.133 46.633 C 125.392 46.374,125.392 45.126,125.133 44.867 C 124.811 44.544,116.064 44.600,115.458 44.929 M168.536 44.841 C 167.352 45.316,166.337 46.676,166.331 47.795 C 166.327 48.408,166.208 48.558,165.333 49.046 C 164.109 49.730,164.189 50.664,165.531 51.349 L 166.167 51.673 166.167 54.932 C 166.167 58.377,166.191 58.493,166.974 58.742 C 167.773 58.995,167.833 58.734,167.833 54.985 C 167.833 51.108,167.815 51.167,169.039 51.167 C 169.748 51.167,170.000 50.915,170.000 50.206 C 170.000 49.283,169.746 48.982,169.005 49.026 C 167.329 49.124,167.431 47.376,169.132 46.833 C 169.863 46.600,169.920 46.541,169.968 45.965 C 170.062 44.832,169.553 44.432,168.536 44.841 M126.870 49.259 C 126.504 49.516,126.500 49.561,126.500 53.917 C 126.500 58.843,126.497 58.833,127.768 58.833 C 128.466 58.833,128.495 58.692,128.498 55.272 L 128.500 52.461 129.169 51.792 C 129.789 51.172,129.890 51.130,130.570 51.206 C 131.542 51.316,131.640 51.228,131.687 50.201 C 131.738 49.072,131.508 48.810,130.813 49.209 C 130.534 49.369,130.201 49.500,130.071 49.500 C 129.942 49.500,129.742 49.650,129.628 49.833 C 129.309 50.344,128.863 50.241,128.550 49.583 C 128.233 48.920,127.545 48.787,126.870 49.259 M135.539 49.793 C 134.348 50.570,134.328 50.594,134.372 51.239 C 134.432 52.121,135.163 52.385,135.829 51.766 C 136.435 51.202,136.868 51.022,137.250 51.176 C 137.433 51.250,137.925 51.315,138.342 51.322 C 139.240 51.335,139.500 51.547,139.500 52.263 C 139.500 53.036,139.179 53.198,137.305 53.367 C 135.673 53.515,135.594 53.541,134.829 54.186 C 132.313 56.308,135.443 60.298,138.018 58.252 C 138.891 57.558,138.878 57.559,139.390 58.072 C 139.810 58.492,141.053 58.923,141.337 58.748 C 141.435 58.687,141.500 57.220,141.500 55.074 L 141.500 51.502 140.690 50.709 C 138.577 48.641,137.577 48.463,135.539 49.793 M145.042 49.279 C 144.455 49.688,144.451 58.164,145.037 58.574 C 146.116 59.330,146.333 58.817,146.333 55.514 C 146.333 52.930,146.359 52.695,146.667 52.417 C 146.850 52.251,147.000 51.981,147.000 51.817 C 147.000 51.325,147.612 51.008,148.222 51.182 C 148.511 51.265,149.031 51.333,149.376 51.333 C 150.499 51.333,150.665 51.851,150.666 55.355 C 150.667 58.533,150.669 58.540,151.609 58.741 C 152.336 58.896,152.319 58.987,152.340 54.818 C 152.363 50.554,152.427 50.840,151.211 49.773 C 150.163 48.853,149.292 48.765,148.323 49.481 C 148.061 49.675,147.698 49.833,147.517 49.833 C 147.335 49.833,147.140 49.908,147.083 50.000 C 146.861 50.360,146.314 50.154,145.978 49.583 C 145.590 48.926,145.561 48.917,145.042 49.279 M157.477 49.603 C 155.943 50.639,155.917 50.682,155.917 52.100 C 155.917 53.485,156.485 54.323,157.617 54.607 C 159.603 55.105,160.972 56.162,160.072 56.504 C 158.949 56.931,157.000 56.604,157.000 55.988 C 157.000 55.765,156.436 55.797,156.200 56.033 C 156.090 56.143,156.000 56.500,156.000 56.825 C 156.001 58.267,159.363 59.530,160.363 58.464 C 160.576 58.236,161.058 57.858,161.434 57.622 C 161.986 57.276,162.139 57.069,162.224 56.555 C 162.414 55.407,162.347 55.085,161.792 54.463 C 161.494 54.130,161.153 53.740,161.035 53.595 C 160.917 53.451,160.579 53.332,160.285 53.330 C 159.251 53.323,156.945 51.989,157.319 51.614 C 157.924 51.009,159.742 51.074,160.754 51.737 C 161.380 52.148,161.611 52.060,161.794 51.340 C 161.961 50.682,161.618 50.167,161.013 50.167 C 160.922 50.167,160.638 49.904,160.382 49.583 C 159.714 48.746,158.737 48.753,157.477 49.603 M175.250 49.260 C 172.453 50.643,171.295 53.078,172.196 55.683 C 172.971 57.927,176.656 59.738,177.863 58.470 C 178.076 58.246,178.512 57.962,178.833 57.839 C 179.608 57.542,179.833 57.232,179.833 56.463 C 179.833 55.624,179.466 55.477,178.850 56.068 C 178.439 56.461,178.196 56.528,176.734 56.652 C 174.791 56.816,174.786 56.814,174.324 56.027 C 174.127 55.691,173.859 55.356,173.729 55.281 C 172.820 54.761,174.305 54.452,177.524 54.490 C 179.776 54.518,180.495 54.476,180.597 54.311 C 180.793 53.994,180.685 52.964,180.425 52.671 C 180.301 52.531,180.080 52.013,179.936 51.520 C 179.636 50.501,179.411 50.167,179.021 50.165 C 178.872 50.164,178.421 49.902,178.018 49.582 C 177.191 48.924,176.169 48.806,175.250 49.260 M183.958 49.262 L 183.500 49.511 183.500 53.995 C 183.500 56.462,183.557 58.515,183.626 58.558 C 183.696 58.601,184.033 58.689,184.376 58.753 L 185.000 58.870 185.007 56.477 C 185.019 52.539,185.697 51.035,187.374 51.227 C 188.258 51.328,188.395 51.139,188.405 49.802 C 188.411 48.954,188.247 48.863,187.497 49.294 C 187.142 49.499,186.765 49.667,186.660 49.667 C 186.556 49.667,186.327 49.835,186.152 50.042 L 185.834 50.417 185.417 49.949 C 185.188 49.692,185.000 49.373,185.000 49.241 C 185.000 48.934,184.546 48.943,183.958 49.262 M177.075 51.333 C 177.562 51.333,178.077 51.437,178.260 51.572 C 179.121 52.209,175.190 52.684,174.236 52.059 L 173.817 51.784 174.283 51.467 C 174.637 51.226,174.927 51.171,175.482 51.241 C 175.884 51.292,176.601 51.333,177.075 51.333 M139.206 55.786 C 139.664 56.200,139.291 56.453,137.912 56.666 C 136.568 56.874,135.429 56.576,135.532 56.043 C 135.654 55.405,138.561 55.202,139.206 55.786 " stroke="none" fill="#9c6446" fill-rule="evenodd"></path></g></svg>